<svg xmlns="http://www.w3.org/2000/svg" xmlns:xlink="http://www.w3.org/1999/xlink" version="1.1" width="256" height="256" viewBox="0 0 256 256" xml:space="preserve">

<defs>
</defs>
<g style="stroke: none; stroke-width: 0; stroke-dasharray: none; stroke-linecap: butt; stroke-linejoin: miter; stroke-miterlimit: 10; fill: none; fill-rule: nonzero; opacity: 1;" transform="translate(1.4065934065934016 1.4065934065934016) scale(2.81 2.81)" >
	<path d="M 45 0 C 28.967 0 14.902 8.392 6.932 21.015 c 2.729 1.97 6.069 3.145 9.693 3.145 h 32.399 c 17.08 0 32.123 8.704 40.948 21.915 C 89.981 45.716 90 45.36 90 45 C 90 20.147 69.853 0 45 0 z" style="stroke: none; stroke-width: 1; stroke-dasharray: none; stroke-linecap: butt; stroke-linejoin: miter; stroke-miterlimit: 10; fill: rgb(230,0,35); fill-rule: nonzero; opacity: 1;" transform=" matrix(1 0 0 1 0 0) " stroke-linecap="round" />
	<path d="M 90 45 c 0 -1.207 -0.062 -2.399 -0.155 -3.583 C 81.002 27.735 66.02 20.885 49.024 20.885 H 16.625 c -3.159 0 -6.101 -0.494 -8.614 -1.504 C 3.387 26.046 0.51 34.014 0.063 42.629 c 9.023 11.127 22.794 18.247 38.236 18.247 h 0.744 c 9.038 0 13.101 3.942 13.329 12.925 c 0.004 -0.143 0.022 -0.282 0.022 -0.426 c 0 8.417 -3.516 15.355 -11.172 16.456 C 42.469 89.934 43.726 90 45 90 C 69.853 90 90 69.853 90 45 z" style="stroke: none; stroke-width: 1; stroke-dasharray: none; stroke-linecap: butt; stroke-linejoin: miter; stroke-miterlimit: 10; fill: rgb(216,0,33); fill-rule: nonzero; opacity: 1;" transform=" matrix(1 0 0 1 0 0) " stroke-linecap="round" />
	<path d="M 41.27 89.834 c 7.988 -1.072 14.169 -7.802 14.378 -16.034 c -0.228 -8.983 -7.566 -16.2 -16.604 -16.2 h -0.744 c -15.296 0 -28.947 -6.992 -37.973 -17.938 C 0.119 41.414 0 43.193 0 45 C 0 68.595 18.164 87.936 41.27 89.834 z" style="stroke: none; stroke-width: 1; stroke-dasharray: none; stroke-linecap: butt; stroke-linejoin: miter; stroke-miterlimit: 10; fill: rgb(203,0,31); fill-rule: nonzero; opacity: 1;" transform=" matrix(1 0 0 1 0 0) " stroke-linecap="round" />
	<path d="M 11.625 24.41 c 0.675 -0.564 1.768 -2.423 2.014 -3.371 c 0.133 -0.51 0.68 -2.593 0.68 -2.593 c 0.356 0.678 1.395 1.252 2.5 1.252 c 3.289 0 5.66 -3.025 5.66 -6.784 c 0 -3.603 -2.94 -6.299 -6.724 -6.299 c -4.706 0 -7.206 3.16 -7.206 6.6 c 0 1.6 0.852 3.591 2.214 4.225 c 0.207 0.096 0.317 0.054 0.365 -0.146 c 0.036 -0.152 0.22 -0.892 0.303 -1.237 c 0.026 -0.11 0.013 -0.205 -0.076 -0.313 c -0.451 -0.546 -0.812 -1.552 -0.812 -2.489 c 0 -2.405 1.821 -4.733 4.925 -4.733 c 2.679 0 4.556 1.826 4.556 4.437 c 0 2.95 -1.49 4.994 -3.428 4.994 c -1.071 0 -1.872 -0.885 -1.615 -1.971 c 0.307 -1.297 0.903 -2.696 0.903 -3.631 c 0 -0.838 -0.45 -1.536 -1.38 -1.536 c -1.095 0 -1.974 1.132 -1.974 2.649 c 0 0.966 0.326 1.619 0.326 1.619 s -1.081 4.57 -1.279 5.421 c -0.219 0.942 -0.133 2.269 -0.038 3.132 L 11.625 24.41 z" style="stroke: none; stroke-width: 1; stroke-dasharray: none; stroke-linecap: butt; stroke-linejoin: miter; stroke-miterlimit: 10; fill: rgb(255,255,255); fill-rule: nonzero; opacity: 1;" transform=" matrix(2.81 0 0 2.81 1.4065934065934016 1.4065934065934016) " stroke-linecap="round" />
</g>
</svg>