<?xml version="1.0" encoding="UTF-8" standalone="no"?>
<!DOCTYPE svg PUBLIC "-//W3C//DTD SVG 1.1//EN" "http://www.w3.org/Graphics/SVG/1.1/DTD/svg11.dtd">
<!-- Created with Vectornator (http://vectornator.io/) -->
<svg height="100%" stroke-miterlimit="10" style="fill-rule:nonzero;clip-rule:evenodd;stroke-linecap:round;stroke-linejoin:round;" version="1.1" viewBox="0 0 60 40" width="100%" xml:space="preserve" xmlns="http://www.w3.org/2000/svg" xmlns:vectornator="http://vectornator.io" xmlns:xlink="http://www.w3.org/1999/xlink">
<defs>
<clipPath id="TextBounds">
<rect height="15.4628" width="59.6089" x="0.262856" y="0.263052"/>
</clipPath>
<linearGradient gradientTransform="matrix(-0.951579 -0.295767 0.314846 -0.893914 27.022 68.1629)" gradientUnits="userSpaceOnUse" id="LinearGradient" x1="20.7451" x2="23.8188" y1="28.6424" y2="29.8922">
<stop offset="0" stop-color="#91d04b"/>
<stop offset="1" stop-color="#2f4a10"/>
</linearGradient>
<linearGradient gradientTransform="matrix(-0.268748 -0.996452 -1.07622 0.121707 63.0885 43.3753)" gradientUnits="userSpaceOnUse" id="LinearGradient_2" x1="20.7451" x2="23.8188" y1="28.6424" y2="29.8922">
<stop offset="0" stop-color="#91d04b"/>
<stop offset="1" stop-color="#2f4a10"/>
</linearGradient>
<linearGradient gradientTransform="matrix(0.494495 0.92049 1.02296 -0.330628 -22.3536 12.5773)" gradientUnits="userSpaceOnUse" id="LinearGradient_3" x1="20.7451" x2="23.8188" y1="28.6424" y2="29.8922">
<stop offset="0" stop-color="#91d04b"/>
<stop offset="1" stop-color="#2f4a10"/>
</linearGradient>
<linearGradient gradientTransform="matrix(-0.184953 0.828452 0.838729 0.292376 -9.73176 0.80785)" gradientUnits="userSpaceOnUse" id="LinearGradient_4" x1="21.9209" x2="23.8188" y1="28.0332" y2="29.8922">
<stop offset="0" stop-color="#91d04b"/>
<stop offset="1" stop-color="#2f4a10"/>
</linearGradient>
<linearGradient gradientTransform="matrix(-1.2264 0.524345 -0.8147 -1.09603 68.9377 37.6069)" gradientUnits="userSpaceOnUse" id="LinearGradient_5" x1="35.0838" x2="37.9697" y1="25.1533" y2="25.1533">
<stop offset="0" stop-color="#d2cb14"/>
<stop offset="0.997934" stop-color="#4f8612"/>
</linearGradient>
<linearGradient gradientTransform="matrix(-1.17648 -0.613442 0.497603 -1.24618 58.3762 72.3359)" gradientUnits="userSpaceOnUse" id="LinearGradient_6" x1="35.0838" x2="37.9697" y1="25.1533" y2="25.1533">
<stop offset="0" stop-color="#d2cb14"/>
<stop offset="0.997934" stop-color="#4f8612"/>
</linearGradient>
</defs>
<g id="Layer-1" vectornator:layerName="Layer 1">
<g fill="#c80808" opacity="1" stroke="none">
<path clip-path="url(#TextBounds)" d="M3.82836 4.73405L3.82836 11.2706L2.28986 11.2706L2.28986 4.73405L3.82836 4.73405ZM2.18786 3.05955C2.18786 2.94055 2.21052 2.82864 2.25586 2.7238C2.30119 2.61897 2.36352 2.52689 2.44286 2.44755C2.52219 2.36822 2.61427 2.30589 2.71911 2.26055C2.82394 2.21522 2.93586 2.19255 3.05486 2.19255C3.17386 2.19255 3.28577 2.21522 3.39061 2.26055C3.49544 2.30589 3.58752 2.36822 3.66686 2.44755C3.74619 2.52689 3.80852 2.61897 3.85386 2.7238C3.89919 2.82864 3.92186 2.94055 3.92186 3.05955C3.92186 3.17855 3.89919 3.29047 3.85386 3.3953C3.80852 3.50014 3.74619 3.59222 3.66686 3.67155C3.58752 3.75089 3.49544 3.81322 3.39061 3.85855C3.28577 3.90389 3.17386 3.92655 3.05486 3.92655C2.93586 3.92655 2.82394 3.90389 2.71911 3.85855C2.61427 3.81322 2.52219 3.75089 2.44286 3.67155C2.36352 3.59222 2.30119 3.50014 2.25586 3.3953C2.21052 3.29047 2.18786 3.17855 2.18786 3.05955Z"/>
<path clip-path="url(#TextBounds)" d="M6.42086 4.73405L6.42086 7.19055C6.42086 7.72889 6.68152 7.99805 7.20286 7.99805C7.72419 7.99805 7.98486 7.72889 7.98486 7.19055L7.98486 4.73405L9.52336 4.73405L9.52336 7.48805C9.52336 8.07739 9.32927 8.51939 8.94111 8.81405C8.55294 9.10872 7.97352 9.25605 7.20286 9.25605C6.43219 9.25605 5.85277 9.10872 5.46461 8.81405C5.07644 8.51939 4.88236 8.07739 4.88236 7.48805L4.88236 4.73405L6.42086 4.73405Z"/>
<path clip-path="url(#TextBounds)" d="M12.2859 6.01755L12.2859 9.09455L10.7474 9.09455L10.7474 6.01755L10.2374 6.01755L10.2374 4.73405L10.7474 4.73405L10.7474 3.42505L12.2859 3.42505L12.2859 4.73405L13.1614 4.73405L13.1614 6.01755L12.2859 6.01755Z"/>
<path clip-path="url(#TextBounds)" d="M17.0119 6.28105C16.9609 6.06572 16.856 5.89289 16.6974 5.76255C16.5387 5.63222 16.346 5.56705 16.1194 5.56705C15.8814 5.56705 15.6873 5.62939 15.5371 5.75405C15.3869 5.87872 15.292 6.05439 15.2524 6.28105L17.0119 6.28105ZM15.2099 7.17355C15.2099 7.83655 15.5215 8.16805 16.1449 8.16805C16.4792 8.16805 16.7314 8.03205 16.9014 7.76005L18.3889 7.76005C18.0885 8.75739 17.3377 9.25605 16.1364 9.25605C15.768 9.25605 15.4309 9.2008 15.1249 9.0903C14.8189 8.9798 14.5568 8.82255 14.3386 8.61855C14.1204 8.41455 13.9519 8.17089 13.8329 7.88755C13.7139 7.60422 13.6544 7.28689 13.6544 6.93555C13.6544 6.57289 13.711 6.24564 13.8244 5.9538C13.9377 5.66197 14.0992 5.41405 14.3089 5.21005C14.5185 5.00605 14.7721 4.8488 15.0696 4.7383C15.3671 4.6278 15.7029 4.57255 16.0769 4.57255C16.4452 4.57255 16.7767 4.6278 17.0714 4.7383C17.366 4.8488 17.6154 5.00889 17.8194 5.21855C18.0234 5.42822 18.1792 5.68464 18.2869 5.9878C18.3945 6.29097 18.4484 6.63239 18.4484 7.01205L18.4484 7.17355L15.2099 7.17355Z"/>
<path clip-path="url(#TextBounds)" d="M25.0869 5.02305C25.4835 4.78505 25.6819 4.51872 25.6819 4.22405C25.6819 4.06539 25.6294 3.92797 25.5246 3.8118C25.4198 3.69564 25.2852 3.63755 25.1209 3.63755C24.9679 3.63755 24.8404 3.68855 24.7384 3.79055C24.6364 3.89255 24.5854 4.02005 24.5854 4.17305C24.5854 4.37705 24.7525 4.66039 25.0869 5.02305ZM24.3984 6.41705C23.996 6.66639 23.7949 6.91572 23.7949 7.16505C23.7949 7.25572 23.8147 7.3393 23.8544 7.4158C23.894 7.4923 23.9479 7.55747 24.0159 7.6113C24.0839 7.66514 24.1618 7.70764 24.2496 7.7388C24.3374 7.76997 24.4324 7.78555 24.5344 7.78555C24.8177 7.78555 25.1095 7.69205 25.4099 7.50505L24.3984 6.41705ZM26.6254 6.64655C26.9654 6.32355 27.243 6.01755 27.4584 5.72855L28.4019 6.63805C28.3055 6.76839 28.1964 6.90014 28.0746 7.0333C27.9528 7.16647 27.8125 7.30672 27.6539 7.45405L27.5264 7.57305L28.9544 9.09455L26.8804 9.09455L26.3194 8.50805C25.5544 9.01805 24.8205 9.27305 24.1179 9.27305C23.8175 9.27305 23.5427 9.22772 23.2934 9.13705C23.044 9.04639 22.8287 8.91889 22.6474 8.75455C22.466 8.59022 22.3244 8.39614 22.2224 8.1723C22.1204 7.94847 22.0694 7.70339 22.0694 7.43705C22.0694 7.19905 22.1019 6.98797 22.1671 6.8038C22.2323 6.61964 22.3442 6.44255 22.5029 6.27255C22.6219 6.14222 22.7536 6.0303 22.8981 5.9368C23.0426 5.8433 23.2197 5.74839 23.4294 5.65205L23.6079 5.56705L23.4974 5.43955C23.1687 5.02589 23.0044 4.63205 23.0044 4.25805C23.0044 4.00872 23.0554 3.77639 23.1574 3.56105C23.2594 3.34572 23.3996 3.16014 23.5781 3.0043C23.7566 2.84847 23.9677 2.72664 24.2114 2.6388C24.455 2.55097 24.7185 2.50705 25.0019 2.50705C25.2909 2.50705 25.5572 2.55097 25.8009 2.6388C26.0445 2.72664 26.2556 2.84989 26.4341 3.00855C26.6126 3.16722 26.7514 3.3528 26.8506 3.5653C26.9498 3.7778 26.9994 4.00872 26.9994 4.25805C26.9994 4.42805 26.9795 4.58247 26.9399 4.7213C26.9002 4.86014 26.8336 4.99047 26.7401 5.1123C26.6466 5.23414 26.5248 5.3503 26.3746 5.4608C26.2244 5.5713 26.0389 5.68322 25.8179 5.79655L26.6254 6.64655Z"/>
<path clip-path="url(#TextBounds)" d="M32.3714 4.73405L33.9099 4.73405L33.9099 5.26955C34.3292 4.86722 34.7995 4.66605 35.3209 4.66605C35.9669 4.66605 36.4599 4.93805 36.7999 5.48205C37.1455 4.93239 37.6385 4.65755 38.2789 4.65755C38.4829 4.65755 38.6755 4.6873 38.8569 4.7468C39.0382 4.8063 39.194 4.8998 39.3244 5.0273C39.4547 5.1548 39.5581 5.32055 39.6346 5.52455C39.7111 5.72855 39.7494 5.97505 39.7494 6.26405L39.7494 9.09455L38.2109 9.09455L38.2109 6.94405C38.2109 6.72305 38.1953 6.54172 38.1641 6.40005C38.1329 6.25839 38.0876 6.14789 38.0281 6.06855C37.9686 5.98922 37.8992 5.93539 37.8199 5.90705C37.7405 5.87872 37.6555 5.86455 37.5649 5.86455C37.0719 5.86455 36.8254 6.22439 36.8254 6.94405L36.8254 9.09455L35.2869 9.09455L35.2869 6.94405C35.2869 6.72305 35.2727 6.5403 35.2444 6.3958C35.216 6.2513 35.1749 6.13655 35.1211 6.05155C35.0673 5.96655 34.9979 5.90847 34.9129 5.8773C34.8279 5.84614 34.7287 5.83055 34.6154 5.83055C34.519 5.83055 34.4284 5.84472 34.3434 5.87305C34.2584 5.90139 34.1833 5.95664 34.1181 6.0388C34.0529 6.12097 34.0019 6.2343 33.9651 6.3788C33.9283 6.5233 33.9099 6.71172 33.9099 6.94405L33.9099 9.09455L32.3714 9.09455L32.3714 4.73405Z"/>
<path clip-path="url(#TextBounds)" d="M42.2569 6.89305C42.2569 7.04039 42.2838 7.17497 42.3376 7.2968C42.3914 7.41864 42.4623 7.52489 42.5501 7.61555C42.6379 7.70622 42.7428 7.77705 42.8646 7.82805C42.9864 7.87905 43.1154 7.90455 43.2514 7.90455C43.3874 7.90455 43.5163 7.87905 43.6381 7.82805C43.7599 7.77705 43.8648 7.70622 43.9526 7.61555C44.0404 7.52489 44.1113 7.41864 44.1651 7.2968C44.2189 7.17497 44.2459 7.04322 44.2459 6.90155C44.2459 6.76555 44.2189 6.63664 44.1651 6.5148C44.1113 6.39297 44.0404 6.28672 43.9526 6.19605C43.8648 6.10539 43.7599 6.03455 43.6381 5.98355C43.5163 5.93255 43.3874 5.90705 43.2514 5.90705C43.1154 5.90705 42.9864 5.93255 42.8646 5.98355C42.7428 6.03455 42.6379 6.10539 42.5501 6.19605C42.4623 6.28672 42.3914 6.39155 42.3376 6.51055C42.2838 6.62955 42.2569 6.75705 42.2569 6.89305ZM40.6334 6.87605C40.6334 6.55305 40.6985 6.2513 40.8289 5.9708C40.9592 5.6903 41.1405 5.44664 41.3729 5.2398C41.6052 5.03297 41.8814 4.87005 42.2016 4.75105C42.5218 4.63205 42.8717 4.57255 43.2514 4.57255C43.6254 4.57255 43.9724 4.63064 44.2926 4.7468C44.6128 4.86297 44.8904 5.02447 45.1256 5.2313C45.3608 5.43814 45.5435 5.68464 45.6739 5.9708C45.8042 6.25697 45.8694 6.57289 45.8694 6.91855C45.8694 7.26422 45.8028 7.58014 45.6696 7.8663C45.5364 8.15247 45.3537 8.39897 45.1214 8.6058C44.889 8.81264 44.6099 8.97272 44.2841 9.08605C43.9583 9.19939 43.6055 9.25605 43.2259 9.25605C42.8519 9.25605 42.5062 9.19939 42.1889 9.08605C41.8715 8.97272 41.5981 8.81122 41.3686 8.60155C41.1391 8.39189 40.9592 8.14114 40.8289 7.8493C40.6985 7.55747 40.6334 7.23305 40.6334 6.87605Z"/>
<path clip-path="url(#TextBounds)" d="M48.2069 6.89305C48.2069 7.04039 48.2338 7.17497 48.2876 7.2968C48.3414 7.41864 48.4123 7.52489 48.5001 7.61555C48.5879 7.70622 48.6928 7.77705 48.8146 7.82805C48.9364 7.87905 49.0654 7.90455 49.2014 7.90455C49.3374 7.90455 49.4663 7.87905 49.5881 7.82805C49.7099 7.77705 49.8148 7.70622 49.9026 7.61555C49.9904 7.52489 50.0613 7.41864 50.1151 7.2968C50.1689 7.17497 50.1959 7.04322 50.1959 6.90155C50.1959 6.76555 50.1689 6.63664 50.1151 6.5148C50.0613 6.39297 49.9904 6.28672 49.9026 6.19605C49.8148 6.10539 49.7099 6.03455 49.5881 5.98355C49.4663 5.93255 49.3374 5.90705 49.2014 5.90705C49.0654 5.90705 48.9364 5.93255 48.8146 5.98355C48.6928 6.03455 48.5879 6.10539 48.5001 6.19605C48.4123 6.28672 48.3414 6.39155 48.2876 6.51055C48.2338 6.62955 48.2069 6.75705 48.2069 6.89305ZM46.5834 6.87605C46.5834 6.55305 46.6485 6.2513 46.7789 5.9708C46.9092 5.6903 47.0905 5.44664 47.3229 5.2398C47.5552 5.03297 47.8314 4.87005 48.1516 4.75105C48.4718 4.63205 48.8217 4.57255 49.2014 4.57255C49.5754 4.57255 49.9224 4.63064 50.2426 4.7468C50.5628 4.86297 50.8404 5.02447 51.0756 5.2313C51.3108 5.43814 51.4935 5.68464 51.6239 5.9708C51.7542 6.25697 51.8194 6.57289 51.8194 6.91855C51.8194 7.26422 51.7528 7.58014 51.6196 7.8663C51.4864 8.15247 51.3037 8.39897 51.0714 8.6058C50.839 8.81264 50.5599 8.97272 50.2341 9.08605C49.9083 9.19939 49.5555 9.25605 49.1759 9.25605C48.8019 9.25605 48.4562 9.19939 48.1389 9.08605C47.8215 8.97272 47.5481 8.81122 47.3186 8.60155C47.0891 8.39189 46.9092 8.14114 46.7789 7.8493C46.6485 7.55747 46.5834 7.23305 46.5834 6.87605Z"/>
<path clip-path="url(#TextBounds)" d="M54.1314 6.90155C54.1314 7.04322 54.1569 7.17497 54.2079 7.2968C54.2589 7.41864 54.3283 7.52489 54.4161 7.61555C54.5039 7.70622 54.6088 7.77705 54.7306 7.82805C54.8524 7.87905 54.9842 7.90455 55.1259 7.90455C55.2619 7.90455 55.3908 7.87905 55.5126 7.82805C55.6344 7.77705 55.7393 7.70622 55.8271 7.61555C55.9149 7.52489 55.9858 7.42005 56.0396 7.30105C56.0934 7.18205 56.1204 7.05455 56.1204 6.91855C56.1204 6.78255 56.0934 6.65364 56.0396 6.5318C55.9858 6.40997 55.9149 6.30372 55.8271 6.21305C55.7393 6.12239 55.6344 6.05155 55.5126 6.00055C55.3908 5.94955 55.2619 5.92405 55.1259 5.92405C54.9899 5.92405 54.8609 5.94955 54.7391 6.00055C54.6173 6.05155 54.5124 6.12239 54.4246 6.21305C54.3368 6.30372 54.2659 6.40714 54.2121 6.5233C54.1583 6.63947 54.1314 6.76555 54.1314 6.90155ZM56.0694 2.03955L57.6164 2.03955L57.6164 9.09455L56.0694 9.09455L56.0694 8.61005C55.7407 9.02372 55.2959 9.23055 54.7349 9.23055C54.4175 9.23055 54.1257 9.17105 53.8594 9.05205C53.593 8.93305 53.3607 8.76872 53.1624 8.55905C52.964 8.34939 52.8096 8.10289 52.6991 7.81955C52.5886 7.53622 52.5334 7.23022 52.5334 6.90155C52.5334 6.58989 52.5858 6.2938 52.6906 6.0133C52.7954 5.7328 52.9442 5.48772 53.1369 5.27805C53.3295 5.06839 53.5604 4.90264 53.8296 4.7808C54.0988 4.65897 54.3949 4.59805 54.7179 4.59805C55.2619 4.59805 55.7124 4.78789 56.0694 5.16755L56.0694 2.03955Z"/>
</g>
<g opacity="1">
<g opacity="1">
<path d="M57.3125 12.6875C56.3667 13.5098 55.9048 14.6825 55.0312 15.5625C54.5114 16.0861 53.8373 16.4466 53.1875 16.7812C51.228 17.7904 49.0827 18.4428 46.9688 19.0312C45.6306 19.4037 44.3578 19.7011 42.9688 19.7812C40.1955 19.9412 37.4286 19.4472 34.6562 19.6875C31.0167 20.0029 27.3822 21.2096 24.0938 22.75C20.5459 24.4119 16.2434 27.1992 14.6562 31.0938C16.4269 26.8845 21.5635 24.0525 25.4375 22.4688C28.4397 21.2414 31.654 20.3084 34.9062 20.0938C37.7157 19.9083 40.5347 20.4673 43.3438 20.3438C45.2731 20.2589 47.1264 19.7357 48.9688 19.1875C50.5573 18.7148 52.1444 18.1613 53.625 17.4062C54.2761 17.0742 54.9476 16.7099 55.4688 16.1875C56.3441 15.3101 56.8036 14.1645 57.75 13.3438C57.7518 13.3425 57.6528 13.1796 57.5312 13C57.4097 12.8204 57.3143 12.6863 57.3125 12.6875ZM14.6562 31.0938C14.4297 31.6323 14.2927 32.1962 14.1875 32.7812C14.2859 32.1944 14.436 31.6342 14.6562 31.0938ZM14.1875 32.7812C14.1325 33.1092 13.9182 33.3761 13.9062 33.7188C13.9059 33.719 13.9127 33.7446 13.9375 33.7812C13.9623 33.8179 13.9996 33.844 14 33.8438C14.0133 33.4708 14.1236 33.1368 14.1875 32.7812Z" fill="#825c49" stroke="none"/>
</g>
<g opacity="1">
<path d="M17.5312 27.375C16.1521 28.3402 14.9157 29.3921 13.1875 29.625C11.1687 29.897 9.14762 28.8183 7.125 29.1875C6.77858 29.2507 6.45689 29.4135 6.125 29.5312C6.12489 29.5313 6.11789 29.552 6.125 29.5625C6.13211 29.573 6.15614 29.5938 6.15625 29.5938C6.4926 29.4826 6.80666 29.3072 7.15625 29.25C9.22441 28.9118 11.2268 30.0863 13.2812 29.8125C15.0115 29.5819 16.2876 28.514 17.5312 27.375Z" fill="#825c49" stroke="none"/>
</g>
<g opacity="1">
<path d="M13.9761 37.4098C15.0723 38.2403 16.4888 37.0852 16.2865 35.9602C16.1445 35.1704 14.7475 34.506 14.1828 34.0057C13.7123 33.5889 13.4594 34.7014 13.416 34.9379C13.2385 35.9058 13.0199 36.6854 13.9761 37.4098Z" fill="url(#LinearGradient)" fill-rule="nonzero" stroke="none"/>
<path d="M13.9062 33.8438C13.743 33.8583 13.7795 33.9676 13.8125 34.25C13.9072 34.1192 13.9802 33.9338 14.125 34C14.0623 33.9717 13.9392 33.8408 13.9062 33.8438ZM14.125 34C14.4261 34.1376 14.7642 34.4973 15.0312 34.6875C15.4088 34.9564 15.0193 34.7693 14 37.2812C14.0023 37.3663 13.9981 37.348 14 37.4375C16.3977 36.3682 16.3311 37.6194 16.4062 36.375C16.4419 35.7845 15.9573 35.2547 15.5312 34.9062C15.3417 34.7512 14.5157 34.1764 14.125 34ZM14 37.2812C13.9501 35.4165 13.8544 34.6088 13.8125 34.25C13.6318 34.4996 13.4982 34.858 13.4688 35C13.268 35.9689 13.4766 35.0336 13.9688 37.3438C13.9836 37.3067 13.9854 37.3171 14 37.2812Z" fill="#559c0f" stroke="none"/>
</g>
<g opacity="1">
<path d="M28.0386 24.1152C28.9237 25.3658 27.4494 26.5146 26.1445 26.08C25.2284 25.7749 24.5634 24.2637 24.0224 23.6043C23.5716 23.0549 24.8995 23.0399 25.181 23.0469C26.3328 23.0755 27.2667 23.0244 28.0386 24.1152Z" fill="url(#LinearGradient_2)" fill-rule="nonzero" stroke="none"/>
<path d="M24.4375 23C24.1621 23.031 23.9112 23.1212 23.875 23.3125C23.8676 23.3514 23.9513 23.3903 23.9688 23.4375C24.0196 23.0477 24.0256 23.4695 28 24.1562C27.9922 24.1724 28.0075 24.1717 28 24.1875C28.0362 24.172 28.0252 24.172 28.0625 24.1562C28.0627 24.1561 28.0416 24.1403 28.0312 24.125C28.019 24.107 28.0314 24.0936 28.0312 24.0938C25.1508 22.9918 26.3449 23.036 25.125 23C25.0038 22.9964 24.7129 22.969 24.4375 23ZM28 24.1875C25.5424 25.2365 25.5301 25.5873 25.3125 25.3438C25.7744 25.8242 26.3104 26.1734 27.0312 26.0312C27.919 25.8562 27.1591 25.9589 28 24.1875ZM25.3125 25.3438C25.2401 25.2684 25.1607 25.2078 25.0938 25.125C25.1424 25.194 25.1677 25.2763 25.2188 25.3438C25.253 25.3889 25.2881 25.3164 25.3125 25.3438ZM23.9688 23.4688C23.9634 23.4895 23.9574 23.5152 23.9688 23.5312C24.0796 23.6884 24.2072 23.838 24.3125 24C24.2395 23.8921 24.0527 23.6642 23.9688 23.4688Z" fill="#559c0f" stroke="none"/>
</g>
<g opacity="1">
<path d="M16.3679 24.4953C15.2122 23.4478 16.3849 22.0356 17.7607 22.2034C18.7267 22.3212 19.728 23.6665 20.41 24.2042C20.9783 24.6521 19.6847 24.9281 19.408 24.9767C18.2763 25.1753 17.3759 25.409 16.3679 24.4953Z" fill="url(#LinearGradient_3)" fill-rule="nonzero" stroke="none"/>
<path d="M17.5 22.3125C16.2143 22.3402 17.5068 22.3261 16.3438 24.4688C16.467 24.4842 16.355 24.4544 16.4688 24.4688C18.2144 23.168 18.4374 22.7708 18.625 22.75C18.2785 22.5254 17.9353 22.3031 17.5 22.3125ZM18.625 22.75C19.1647 23.0999 19.6766 23.5531 20.125 23.9688C20.062 23.9151 20.0203 23.8308 19.9688 23.7812C19.5994 23.4265 19.2668 23.0501 18.875 22.7188C18.7405 22.605 18.689 22.7429 18.625 22.75ZM16.4688 24.4688C16.4289 24.4985 16.4478 24.5008 16.4062 24.5312C19.3936 25.0385 18.2583 25.2306 19.4375 25.0312C19.5836 25.0066 20.6798 24.7882 20.5938 24.5C20.5814 24.4586 20.5209 24.4447 20.5 24.4062C20.4866 24.416 20.4741 24.4258 20.4688 24.4375C20.3366 24.7238 19.8186 24.811 19.5625 24.875C19.4971 24.8913 19.3316 24.8302 16.4688 24.4688ZM20.5 24.4062C20.5214 24.3907 20.5432 24.3604 20.5312 24.3438C20.4287 24.2012 20.2904 24.1143 20.1562 24C20.295 24.1192 20.4159 24.2515 20.5 24.4062Z" fill="#559c0f" stroke="none"/>
</g>
<g opacity="1">
<path d="M8.66356 27.4153C8.49262 26.1812 10.0188 25.8592 10.8121 26.642C11.3691 27.1916 11.278 28.5393 11.4229 29.2164C11.5436 29.7806 10.5606 29.3204 10.3561 29.2154C9.51955 28.7856 8.81266 28.4918 8.66356 27.4153Z" fill="url(#LinearGradient_4)" fill-rule="nonzero" stroke="none"/>
<path d="M10.3125 26.5938C10.1519 26.7583 9.73253 27.0632 8.8125 27.375C10.3087 27.4385 10.844 27.3678 11.0312 27.375C10.9752 27.177 10.9628 26.8329 10.9062 26.7812C10.4929 26.4042 10.4864 26.4156 10.3125 26.5938ZM11.0312 27.375C11.2074 27.997 11.3976 28.9208 11.375 29.25C11.347 29.6587 11.3526 29.232 8.75 27.4688C10.4227 29.2236 9.6344 28.9278 10.5625 29.3438C10.7265 29.4172 11.2577 29.7208 11.4375 29.5C11.5307 29.3855 11.4426 28.9927 11.4375 28.9375C11.3946 28.4709 11.3916 27.9893 11.2812 27.5312C11.2376 27.3502 11.1338 27.3789 11.0312 27.375ZM8.8125 27.375C8.72986 27.3715 8.7452 27.38 8.65625 27.375C8.6564 27.3749 8.64577 27.3908 8.65625 27.4062C8.67649 27.4271 8.66792 27.4172 8.6875 27.4375C8.77212 27.4119 8.73648 27.4008 8.8125 27.375Z" fill="#559c0f" stroke="none"/>
</g>
<g opacity="1">
<path d="M2.38553 30.2432C0.939374 29.5662 1.46018 28.1537 2.76901 28.0442C3.68796 27.9673 5.10839 28.9252 5.93104 29.2564C6.61642 29.5324 5.55169 30.0032 5.31999 30.0951C4.37209 30.4707 3.64692 30.8337 2.38553 30.2432Z" fill="url(#LinearGradient_5)" fill-rule="nonzero" stroke="none"/>
<path d="M3.71875 28.125C3.46695 28.0291 3.45478 28.0722 3.375 28.3125C3.95662 28.4281 4.52098 28.6573 5.03125 28.9062C5.34539 29.0595 5.68026 29.2026 6 29.3438C5.83038 29.1846 5.66054 29.0685 5.40625 28.9375C4.84926 28.6506 4.30612 28.3487 3.71875 28.125ZM2.53125 28.2188C1.83896 28.3677 1.36491 29.0462 1.71875 29.7188C1.8079 29.8882 1.72896 29.7349 2.375 30.2188C2.41156 30.2118 2.40171 30.2255 2.4375 30.2188C3.04485 29.2019 3.25011 28.5991 3.34375 28.3125C3.07747 28.2628 2.8018 28.1605 2.53125 28.2188ZM2.4375 30.2188C2.4174 30.2524 2.42729 30.2466 2.40625 30.2812C5.36331 30.1665 4.29049 30.5758 5.375 30.1562C5.52413 30.0986 6.36787 29.7669 6.1875 29.4688C6.16982 29.4395 6.14373 29.4311 6.125 29.4062C6.14823 29.4066 6.10287 29.3224 6.09375 29.3438C6.08477 29.3648 6.091 29.3823 6.09375 29.4062C6.09788 29.4421 6.11001 29.4698 6.09375 29.5C5.79777 30.0503 6.04116 29.544 2.4375 30.2188Z" fill="#559c0f" stroke="none"/>
</g>
<g opacity="1">
<path d="M26.254 18.2489C26.0139 16.7734 27.5672 16.343 28.4241 17.259C29.0258 17.9022 29.0023 19.5215 29.1866 20.3296C29.3402 21.0028 28.3049 20.4793 28.0891 20.3592C27.206 19.8678 26.4635 19.5358 26.254 18.2489Z" fill="url(#LinearGradient_6)" fill-rule="nonzero" stroke="none"/>
<path d="M27.4375 17C27.3496 17.2084 27.1078 17.6393 26.3438 18.2188C28.0582 18.2496 28.5146 18.1259 28.6875 18.1562C28.6223 17.8873 28.6184 17.4645 28.5312 17.4062C28.3608 17.2924 28.2151 17.1219 28.0312 17.0312C27.5278 16.7832 27.5302 16.7804 27.4375 17ZM28.6875 18.1562C28.8289 18.7393 28.9705 19.4101 29.0312 19.7812C29.0659 19.9926 29.161 20.1921 29.1562 20.4062C29.1457 20.8824 29.1332 20.3998 26.3125 18.3125C28.0136 20.3163 27.1527 19.8668 28.125 20.4062C28.3084 20.508 29.0286 20.9613 29.2188 20.6562C29.3102 20.5096 29.196 20.038 29.1875 19.9688C29.1191 19.4091 29.076 18.8301 28.9375 18.2812C28.8922 18.1018 28.7656 18.17 28.6875 18.1562ZM26.3438 18.2188C26.2921 18.2178 26.3039 18.2202 26.25 18.2188C26.2502 18.2186 26.2395 18.2345 26.25 18.25C26.269 18.2721 26.2629 18.2597 26.2812 18.2812C26.326 18.249 26.3026 18.25 26.3438 18.2188Z" fill="#559c0f" stroke="none"/>
</g>
</g>
</g>
</svg>
