<?xml version="1.0" encoding="UTF-8" standalone="no"?>
<!DOCTYPE svg PUBLIC "-//W3C//DTD SVG 1.1//EN" "http://www.w3.org/Graphics/SVG/1.1/DTD/svg11.dtd">
<!-- Created with Vectornator (http://vectornator.io/) -->
<svg height="100%" stroke-miterlimit="10" style="fill-rule:nonzero;clip-rule:evenodd;stroke-linecap:round;stroke-linejoin:round;" version="1.1" viewBox="0 0 120 60" width="100%" xml:space="preserve" xmlns="http://www.w3.org/2000/svg" xmlns:vectornator="http://vectornator.io" xmlns:xlink="http://www.w3.org/1999/xlink">
<defs>
<clipPath id="TextBounds">
<rect height="32.6966" width="119.926" x="0.164651" y="15.1381"/>
</clipPath>
</defs>
<g id="Layer-1" vectornator:layerName="Layer 1">
<g fill="#a20a0a" opacity="1" stroke="none">
<path clip-path="url(#TextBounds)" d="M10.9334 24.6061L10.9334 38.4481L7.67542 38.4481L7.67542 24.6061L10.9334 24.6061ZM7.45942 21.0601C7.45942 20.8081 7.50742 20.5711 7.60342 20.3491C7.69942 20.1271 7.83142 19.9321 7.99942 19.7641C8.16742 19.5961 8.36242 19.4641 8.58442 19.3681C8.80642 19.2721 9.04342 19.2241 9.29542 19.2241C9.54742 19.2241 9.78442 19.2721 10.0064 19.3681C10.2284 19.4641 10.4234 19.5961 10.5914 19.7641C10.7594 19.9321 10.8914 20.1271 10.9874 20.3491C11.0834 20.5711 11.1314 20.8081 11.1314 21.0601C11.1314 21.3121 11.0834 21.5491 10.9874 21.7711C10.8914 21.9931 10.7594 22.1881 10.5914 22.3561C10.4234 22.5241 10.2284 22.6561 10.0064 22.7521C9.78442 22.8481 9.54742 22.8961 9.29542 22.8961C9.04342 22.8961 8.80642 22.8481 8.58442 22.7521C8.36242 22.6561 8.16742 22.5241 7.99942 22.3561C7.83142 22.1881 7.69942 21.9931 7.60342 21.7711C7.50742 21.5491 7.45942 21.3121 7.45942 21.0601Z"/>
<path clip-path="url(#TextBounds)" d="M16.4234 24.6061L16.4234 29.8081C16.4234 30.9481 16.9754 31.5181 18.0794 31.5181C19.1834 31.5181 19.7354 30.9481 19.7354 29.8081L19.7354 24.6061L22.9934 24.6061L22.9934 30.4381C22.9934 31.6861 22.5824 32.6221 21.7604 33.2461C20.9384 33.8701 19.7114 34.1821 18.0794 34.1821C16.4474 34.1821 15.2204 33.8701 14.3984 33.2461C13.5764 32.6221 13.1654 31.6861 13.1654 30.4381L13.1654 24.6061L16.4234 24.6061Z"/>
<path clip-path="url(#TextBounds)" d="M28.8434 27.3241L28.8434 33.8401L25.5854 33.8401L25.5854 27.3241L24.5054 27.3241L24.5054 24.6061L25.5854 24.6061L25.5854 21.8341L28.8434 21.8341L28.8434 24.6061L30.6974 24.6061L30.6974 27.3241L28.8434 27.3241Z"/>
<path clip-path="url(#TextBounds)" d="M38.8514 27.8821C38.7434 27.4261 38.5214 27.0601 38.1854 26.7841C37.8494 26.5081 37.4414 26.3701 36.9614 26.3701C36.4574 26.3701 36.0464 26.5021 35.7284 26.7661C35.4104 27.0301 35.2094 27.4021 35.1254 27.8821L38.8514 27.8821ZM35.0354 29.7721C35.0354 31.1761 35.6954 31.8781 37.0154 31.8781C37.7234 31.8781 38.2574 31.5901 38.6174 31.0141L41.7674 31.0141C41.1314 33.1261 39.5414 34.1821 36.9974 34.1821C36.2174 34.1821 35.5034 34.0651 34.8554 33.8311C34.2074 33.5971 33.6524 33.2641 33.1904 32.8321C32.7284 32.4001 32.3714 31.8841 32.1194 31.2841C31.8674 30.6841 31.7414 30.0121 31.7414 29.2681C31.7414 28.5001 31.8614 27.8071 32.1014 27.1891C32.3414 26.5711 32.6834 26.0461 33.1274 25.6141C33.5714 25.1821 34.1084 24.8491 34.7384 24.6151C35.3684 24.3811 36.0794 24.2641 36.8714 24.2641C37.6514 24.2641 38.3534 24.3811 38.9774 24.6151C39.6014 24.8491 40.1294 25.1881 40.5614 25.6321C40.9934 26.0761 41.3234 26.6191 41.5514 27.2611C41.7794 27.9031 41.8934 28.6261 41.8934 29.4301L41.8934 29.7721L35.0354 29.7721Z"/>
<path clip-path="url(#TextBounds)" d="M49.8314 25.2181C50.6714 24.7141 51.0914 24.1501 51.0914 23.5261C51.0914 23.1901 50.9804 22.8991 50.7584 22.6531C50.5364 22.4071 50.2514 22.2841 49.9034 22.2841C49.5794 22.2841 49.3094 22.3921 49.0934 22.6081C48.8774 22.8241 48.7694 23.0941 48.7694 23.4181C48.7694 23.8501 49.1234 24.4501 49.8314 25.2181ZM48.3734 28.1701C47.5214 28.6981 47.0954 29.2261 47.0954 29.7541C47.0954 29.9461 47.1374 30.1231 47.2214 30.2851C47.3054 30.4471 47.4194 30.5851 47.5634 30.6991C47.7074 30.8131 47.8724 30.9031 48.0584 30.9691C48.2444 31.0351 48.4454 31.0681 48.6614 31.0681C49.2614 31.0681 49.8794 30.8701 50.5154 30.4741L48.3734 28.1701ZM53.0894 28.6561C53.8094 27.9721 54.3974 27.3241 54.8534 26.7121L56.8514 28.6381C56.6474 28.9141 56.4164 29.1931 56.1584 29.4751C55.9004 29.7571 55.6034 30.0541 55.2674 30.3661L54.9974 30.6181L58.0214 33.8401L53.6294 33.8401L52.4414 32.5981C50.8214 33.6781 49.2674 34.2181 47.7794 34.2181C47.1434 34.2181 46.5614 34.1221 46.0334 33.9301C45.5054 33.7381 45.0494 33.4681 44.6654 33.1201C44.2814 32.7721 43.9814 32.3611 43.7654 31.8871C43.5494 31.4131 43.4414 30.8941 43.4414 30.3301C43.4414 29.8261 43.5104 29.3791 43.6484 28.9891C43.7864 28.5991 44.0234 28.2241 44.3594 27.8641C44.6114 27.5881 44.8904 27.3511 45.1964 27.1531C45.5024 26.9551 45.8774 26.7541 46.3214 26.5501L46.6994 26.3701L46.4654 26.1001C45.7694 25.2241 45.4214 24.3901 45.4214 23.5981C45.4214 23.0701 45.5294 22.5781 45.7454 22.1221C45.9614 21.6661 46.2584 21.2731 46.6364 20.9431C47.0144 20.6131 47.4614 20.3551 47.9774 20.1691C48.4934 19.9831 49.0514 19.8901 49.6514 19.8901C50.2634 19.8901 50.8274 19.9831 51.3434 20.1691C51.8594 20.3551 52.3064 20.6161 52.6844 20.9521C53.0624 21.2881 53.3564 21.6811 53.5664 22.1311C53.7764 22.5811 53.8814 23.0701 53.8814 23.5981C53.8814 23.9581 53.8394 24.2851 53.7554 24.5791C53.6714 24.8731 53.5304 25.1491 53.3324 25.4071C53.1344 25.6651 52.8764 25.9111 52.5584 26.1451C52.2404 26.3791 51.8474 26.6161 51.3794 26.8561L53.0894 28.6561Z"/>
<path clip-path="url(#TextBounds)" d="M59.1374 24.6061L62.3954 24.6061L62.3954 25.7401C63.2834 24.8881 64.2794 24.4621 65.3834 24.4621C66.7514 24.4621 67.7954 25.0381 68.5154 26.1901C69.2474 25.0261 70.2914 24.4441 71.6474 24.4441C72.0794 24.4441 72.4874 24.5071 72.8714 24.6331C73.2554 24.7591 73.5854 24.9571 73.8614 25.2271C74.1374 25.4971 74.3564 25.8481 74.5184 26.2801C74.6804 26.7121 74.7614 27.2341 74.7614 27.8461L74.7614 33.8401L71.5034 33.8401L71.5034 29.2861C71.5034 28.8181 71.4704 28.4341 71.4044 28.1341C71.3384 27.8341 71.2424 27.6001 71.1164 27.4321C70.9904 27.2641 70.8434 27.1501 70.6754 27.0901C70.5074 27.0301 70.3274 27.0001 70.1354 27.0001C69.0914 27.0001 68.5694 27.7621 68.5694 29.2861L68.5694 33.8401L65.3114 33.8401L65.3114 29.2861C65.3114 28.8181 65.2814 28.4311 65.2214 28.1251C65.1614 27.8191 65.0744 27.5761 64.9604 27.3961C64.8464 27.2161 64.6994 27.0931 64.5194 27.0271C64.3394 26.9611 64.1294 26.9281 63.8894 26.9281C63.6854 26.9281 63.4934 26.9581 63.3134 27.0181C63.1334 27.0781 62.9744 27.1951 62.8364 27.3691C62.6984 27.5431 62.5904 27.7831 62.5124 28.0891C62.4344 28.3951 62.3954 28.7941 62.3954 29.2861L62.3954 33.8401L59.1374 33.8401L59.1374 24.6061Z"/>
<path clip-path="url(#TextBounds)" d="M80.0714 29.1781C80.0714 29.4901 80.1284 29.7751 80.2424 30.0331C80.3564 30.2911 80.5064 30.5161 80.6924 30.7081C80.8784 30.9001 81.1004 31.0501 81.3584 31.1581C81.6164 31.2661 81.8894 31.3201 82.1774 31.3201C82.4654 31.3201 82.7384 31.2661 82.9964 31.1581C83.2544 31.0501 83.4764 30.9001 83.6624 30.7081C83.8484 30.5161 83.9984 30.2911 84.1124 30.0331C84.2264 29.7751 84.2834 29.4961 84.2834 29.1961C84.2834 28.9081 84.2264 28.6351 84.1124 28.3771C83.9984 28.1191 83.8484 27.8941 83.6624 27.7021C83.4764 27.5101 83.2544 27.3601 82.9964 27.2521C82.7384 27.1441 82.4654 27.0901 82.1774 27.0901C81.8894 27.0901 81.6164 27.1441 81.3584 27.2521C81.1004 27.3601 80.8784 27.5101 80.6924 27.7021C80.5064 27.8941 80.3564 28.1161 80.2424 28.3681C80.1284 28.6201 80.0714 28.8901 80.0714 29.1781ZM76.6334 29.1421C76.6334 28.4581 76.7714 27.8191 77.0474 27.2251C77.3234 26.6311 77.7074 26.1151 78.1994 25.6771C78.6914 25.2391 79.2764 24.8941 79.9544 24.6421C80.6324 24.3901 81.3734 24.2641 82.1774 24.2641C82.9694 24.2641 83.7044 24.3871 84.3824 24.6331C85.0604 24.8791 85.6484 25.2211 86.1464 25.6591C86.6444 26.0971 87.0314 26.6191 87.3074 27.2251C87.5834 27.8311 87.7214 28.5001 87.7214 29.2321C87.7214 29.9641 87.5804 30.6331 87.2984 31.2391C87.0164 31.8451 86.6294 32.3671 86.1374 32.8051C85.6454 33.2431 85.0544 33.5821 84.3644 33.8221C83.6744 34.0621 82.9274 34.1821 82.1234 34.1821C81.3314 34.1821 80.5994 34.0621 79.9274 33.8221C79.2554 33.5821 78.6764 33.2401 78.1904 32.7961C77.7044 32.3521 77.3234 31.8211 77.0474 31.2031C76.7714 30.5851 76.6334 29.8981 76.6334 29.1421Z"/>
<path clip-path="url(#TextBounds)" d="M92.6714 29.1781C92.6714 29.4901 92.7284 29.7751 92.8424 30.0331C92.9564 30.2911 93.1064 30.5161 93.2924 30.7081C93.4784 30.9001 93.7004 31.0501 93.9584 31.1581C94.2164 31.2661 94.4894 31.3201 94.7774 31.3201C95.0654 31.3201 95.3384 31.2661 95.5964 31.1581C95.8544 31.0501 96.0764 30.9001 96.2624 30.7081C96.4484 30.5161 96.5984 30.2911 96.7124 30.0331C96.8264 29.7751 96.8834 29.4961 96.8834 29.1961C96.8834 28.9081 96.8264 28.6351 96.7124 28.3771C96.5984 28.1191 96.4484 27.8941 96.2624 27.7021C96.0764 27.5101 95.8544 27.3601 95.5964 27.2521C95.3384 27.1441 95.0654 27.0901 94.7774 27.0901C94.4894 27.0901 94.2164 27.1441 93.9584 27.2521C93.7004 27.3601 93.4784 27.5101 93.2924 27.7021C93.1064 27.8941 92.9564 28.1161 92.8424 28.3681C92.7284 28.6201 92.6714 28.8901 92.6714 29.1781ZM89.2334 29.1421C89.2334 28.4581 89.3714 27.8191 89.6474 27.2251C89.9234 26.6311 90.3074 26.1151 90.7994 25.6771C91.2914 25.2391 91.8764 24.8941 92.5544 24.6421C93.2324 24.3901 93.9734 24.2641 94.7774 24.2641C95.5694 24.2641 96.3044 24.3871 96.9824 24.6331C97.6604 24.8791 98.2484 25.2211 98.7464 25.6591C99.2444 26.0971 99.6314 26.6191 99.9074 27.2251C100.183 27.8311 100.321 28.5001 100.321 29.2321C100.321 29.9641 100.18 30.6331 99.8984 31.2391C99.6164 31.8451 99.2294 32.3671 98.7374 32.8051C98.2454 33.2431 97.6544 33.5821 96.9644 33.8221C96.2744 34.0621 95.5274 34.1821 94.7234 34.1821C93.9314 34.1821 93.1994 34.0621 92.5274 33.8221C91.8554 33.5821 91.2764 33.2401 90.7904 32.7961C90.3044 32.3521 89.9234 31.8211 89.6474 31.2031C89.3714 30.5851 89.2334 29.8981 89.2334 29.1421Z"/>
<path clip-path="url(#TextBounds)" d="M105.217 29.1961C105.217 29.4961 105.271 29.7751 105.379 30.0331C105.487 30.2911 105.634 30.5161 105.82 30.7081C106.006 30.9001 106.228 31.0501 106.486 31.1581C106.744 31.2661 107.023 31.3201 107.323 31.3201C107.611 31.3201 107.884 31.2661 108.142 31.1581C108.4 31.0501 108.622 30.9001 108.808 30.7081C108.994 30.5161 109.144 30.2941 109.258 30.0421C109.372 29.7901 109.429 29.5201 109.429 29.2321C109.429 28.9441 109.372 28.6711 109.258 28.4131C109.144 28.1551 108.994 27.9301 108.808 27.7381C108.622 27.5461 108.4 27.3961 108.142 27.2881C107.884 27.1801 107.611 27.1261 107.323 27.1261C107.035 27.1261 106.762 27.1801 106.504 27.2881C106.246 27.3961 106.024 27.5461 105.838 27.7381C105.652 27.9301 105.502 28.1491 105.388 28.3951C105.274 28.6411 105.217 28.9081 105.217 29.1961ZM109.321 18.9001L112.597 18.9001L112.597 33.8401L109.321 33.8401L109.321 32.8141C108.625 33.6901 107.683 34.1281 106.495 34.1281C105.823 34.1281 105.205 34.0021 104.641 33.7501C104.077 33.4981 103.585 33.1501 103.165 32.7061C102.745 32.2621 102.418 31.7401 102.184 31.1401C101.95 30.5401 101.833 29.8921 101.833 29.1961C101.833 28.5361 101.944 27.9091 102.166 27.3151C102.388 26.7211 102.703 26.2021 103.111 25.7581C103.519 25.3141 104.008 24.9631 104.578 24.7051C105.148 24.4471 105.775 24.3181 106.459 24.3181C107.611 24.3181 108.565 24.7201 109.321 25.5241L109.321 18.9001Z"/>
</g>
</g>
</svg>
