<?xml version="1.0" encoding="UTF-8" standalone="no"?>
<!DOCTYPE svg PUBLIC "-//W3C//DTD SVG 1.1//EN" "http://www.w3.org/Graphics/SVG/1.1/DTD/svg11.dtd">
<!-- Created with Vectornator (http://vectornator.io/) -->
<svg height="100%" stroke-miterlimit="10" style="fill-rule:nonzero;clip-rule:evenodd;stroke-linecap:round;stroke-linejoin:round;" version="1.1" viewBox="0 0 24 24" width="100%" xml:space="preserve" xmlns="http://www.w3.org/2000/svg" xmlns:vectornator="http://vectornator.io" xmlns:xlink="http://www.w3.org/1999/xlink">
<defs/>
<g id="Layer-1" vectornator:layerName="Layer 1">
<g opacity="1">
<path d="M2.49666 12.2953C2.49666 11.3517 3.24471 10.5867 4.16748 10.5867C5.09025 10.5867 5.8383 11.3517 5.8383 12.2953C5.8383 13.239 5.09025 14.0039 4.16748 14.0039C3.24471 14.0039 2.49666 13.239 2.49666 12.2953Z" fill="none" opacity="1" stroke="#ffffff" stroke-linecap="butt" stroke-linejoin="round" stroke-width="1.5"/>
<path d="M4.09346 10.4911L4.09346 1.02755" fill="none" opacity="1" stroke="#ffffff" stroke-linecap="butt" stroke-linejoin="round" stroke-width="1.5"/>
<path d="M4.13574 23.031L4.13574 14.0854" fill="none" opacity="1" stroke="#ffffff" stroke-linecap="butt" stroke-linejoin="round" stroke-width="1.5"/>
</g>
<g opacity="1">
<path d="M18.3715 17.7944C18.3715 18.7379 19.1195 19.5028 20.0423 19.5028C20.9651 19.5028 21.7131 18.7379 21.7131 17.7944C21.7131 16.8509 20.9651 16.086 20.0423 16.086C19.1195 16.086 18.3715 16.8509 18.3715 17.7944Z" fill="none" opacity="1" stroke="#ffffff" stroke-linecap="butt" stroke-linejoin="round" stroke-width="1.5"/>
<path d="M20.0424 19.5897L20.0424 22.9938" fill="none" opacity="1" stroke="#ffffff" stroke-linecap="butt" stroke-linejoin="round" stroke-width="1.5"/>
<path d="M19.9993 0.993314L19.9993 16.0303" fill="none" opacity="1" stroke="#ffffff" stroke-linecap="butt" stroke-linejoin="round" stroke-width="1.5"/>
</g>
<g opacity="1">
<path d="M10.3532 6.21459C10.3532 5.27264 11.1012 4.50903 12.024 4.50903C12.9468 4.50903 13.6948 5.27264 13.6948 6.21459C13.6948 7.15655 12.9468 7.92015 12.024 7.92015C11.1012 7.92015 10.3532 7.15655 10.3532 6.21459Z" fill="none" opacity="1" stroke="#ffffff" stroke-linecap="butt" stroke-linejoin="round" stroke-width="1.5"/>
<path d="M12.024 4.42226L12.024 1.02377" fill="none" opacity="1" stroke="#ffffff" stroke-linecap="butt" stroke-linejoin="round" stroke-width="1.5"/>
<path d="M11.981 22.9881L11.981 7.9758" fill="none" opacity="1" stroke="#ffffff" stroke-linecap="butt" stroke-linejoin="round" stroke-width="1.5"/>
</g>
</g>
</svg>
