<?xml version="1.0" encoding="UTF-8" standalone="no"?>
<!DOCTYPE svg PUBLIC "-//W3C//DTD SVG 1.1//EN" "http://www.w3.org/Graphics/SVG/1.1/DTD/svg11.dtd">
<!-- Created with Vectornator (http://vectornator.io/) -->
<svg height="100%" stroke-miterlimit="10" style="fill-rule:nonzero;clip-rule:evenodd;stroke-linecap:round;stroke-linejoin:round;" version="1.1" viewBox="0 0 50 50" width="100%" xml:space="preserve" xmlns="http://www.w3.org/2000/svg" xmlns:vectornator="http://vectornator.io" xmlns:xlink="http://www.w3.org/1999/xlink">
<defs>
<clipPath id="TextBounds">
<rect height="11.2204" width="49.8641" x="-0.0437297" y="-0.0695067"/>
</clipPath>
<linearGradient gradientTransform="matrix(1.01051 0.168328 -0.166711 1.02031 11.0007 -18.0238)" gradientUnits="userSpaceOnUse" id="LinearGradient" x1="28.569" x2="30.0852" y1="41.0001" y2="41.0001">
<stop offset="0" stop-color="#88dd19"/>
<stop offset="1" stop-color="#22580a"/>
</linearGradient>
<linearGradient gradientTransform="matrix(1.01051 0.168328 -0.166711 1.02031 11.0007 -18.0238)" gradientUnits="userSpaceOnUse" id="LinearGradient_2" x1="28.8707" x2="31.0752" y1="40.8586" y2="40.8586">
<stop offset="0" stop-color="#88dd19"/>
<stop offset="1" stop-color="#22580a"/>
</linearGradient>
<linearGradient gradientTransform="matrix(-0.799885 0.630903 -0.573529 -0.879904 57.9175 34.8626)" gradientUnits="userSpaceOnUse" id="LinearGradient_3" x1="28.569" x2="30.0852" y1="41.0001" y2="41.0001">
<stop offset="0" stop-color="#88dd19"/>
<stop offset="1" stop-color="#22580a"/>
</linearGradient>
<linearGradient gradientTransform="matrix(-0.799885 0.630903 -0.573529 -0.879904 57.9175 34.8626)" gradientUnits="userSpaceOnUse" id="LinearGradient_4" x1="28.8707" x2="31.0752" y1="40.8586" y2="40.8586">
<stop offset="0" stop-color="#88dd19"/>
<stop offset="1" stop-color="#22580a"/>
</linearGradient>
<linearGradient gradientTransform="matrix(0.740178 0.565232 -0.677195 0.623649 21.5981 -21.913)" gradientUnits="userSpaceOnUse" id="LinearGradient_5" x1="28.569" x2="30.0852" y1="41.0001" y2="41.0001">
<stop offset="0" stop-color="#88dd19"/>
<stop offset="1" stop-color="#22580a"/>
</linearGradient>
<linearGradient gradientTransform="matrix(0.740178 0.565232 -0.677195 0.623649 21.5981 -21.913)" gradientUnits="userSpaceOnUse" id="LinearGradient_6" x1="28.8707" x2="31.0752" y1="40.8586" y2="40.8586">
<stop offset="0" stop-color="#88dd19"/>
<stop offset="1" stop-color="#22580a"/>
</linearGradient>
<linearGradient gradientTransform="matrix(-0.289511 0.925662 -0.750202 -0.517941 54.3272 19.923)" gradientUnits="userSpaceOnUse" id="LinearGradient_7" x1="28.569" x2="30.0852" y1="41.0001" y2="41.0001">
<stop offset="0" stop-color="#88dd19"/>
<stop offset="1" stop-color="#22580a"/>
</linearGradient>
<linearGradient gradientTransform="matrix(-0.289511 0.925662 -0.750202 -0.517941 54.3272 19.923)" gradientUnits="userSpaceOnUse" id="LinearGradient_8" x1="28.8707" x2="31.0752" y1="40.8586" y2="40.8586">
<stop offset="0" stop-color="#88dd19"/>
<stop offset="1" stop-color="#22580a"/>
</linearGradient>
<linearGradient gradientTransform="matrix(-0.747934 0.553284 -0.311042 -0.898862 55.5272 35.5111)" gradientUnits="userSpaceOnUse" id="LinearGradient_9" x1="28.569" x2="30.0852" y1="41.0001" y2="41.0001">
<stop offset="0" stop-color="#88dd19"/>
<stop offset="1" stop-color="#22580a"/>
</linearGradient>
<linearGradient gradientTransform="matrix(-0.747934 0.553284 -0.311042 -0.898862 55.5272 35.5111)" gradientUnits="userSpaceOnUse" id="LinearGradient_10" x1="28.8707" x2="31.0752" y1="40.8586" y2="40.8586">
<stop offset="0" stop-color="#88dd19"/>
<stop offset="1" stop-color="#22580a"/>
</linearGradient>
<linearGradient gradientTransform="matrix(0.409791 1.22613 -0.908976 0.0143404 35.8 -2.64967)" gradientUnits="userSpaceOnUse" id="LinearGradient_11" x1="28.569" x2="30.0852" y1="41.0001" y2="41.0001">
<stop offset="0" stop-color="#88dd19"/>
<stop offset="1" stop-color="#22580a"/>
</linearGradient>
<linearGradient gradientTransform="matrix(0.409791 1.22613 -0.908976 0.0143404 35.8 -2.64967)" gradientUnits="userSpaceOnUse" id="LinearGradient_12" x1="28.8707" x2="31.0752" y1="40.8586" y2="40.8586">
<stop offset="0" stop-color="#88dd19"/>
<stop offset="1" stop-color="#22580a"/>
</linearGradient>
<linearGradient gradientTransform="matrix(0.381019 -1.23683 0.723319 0.592563 -18.6374 37.5636)" gradientUnits="userSpaceOnUse" id="LinearGradient_13" x1="28.569" x2="30.0852" y1="41.0001" y2="41.0001">
<stop offset="0" stop-color="#88dd19"/>
<stop offset="1" stop-color="#22580a"/>
</linearGradient>
<linearGradient gradientTransform="matrix(0.381019 -1.23683 0.723319 0.592563 -18.6374 37.5636)" gradientUnits="userSpaceOnUse" id="LinearGradient_14" x1="28.8707" x2="31.0752" y1="40.8586" y2="40.8586">
<stop offset="0" stop-color="#88dd19"/>
<stop offset="1" stop-color="#22580a"/>
</linearGradient>
<linearGradient gradientTransform="matrix(0.422912 0.852935 -0.831533 0.358467 25.9233 -18.8674)" gradientUnits="userSpaceOnUse" id="LinearGradient_15" x1="28.569" x2="30.0852" y1="41.0001" y2="41.0001">
<stop offset="0" stop-color="#e9e741"/>
<stop offset="1" stop-color="#417109"/>
</linearGradient>
<linearGradient gradientTransform="matrix(0.422912 0.852935 -0.831533 0.358467 25.9233 -18.8674)" gradientUnits="userSpaceOnUse" id="LinearGradient_16" x1="28.8707" x2="31.0752" y1="40.8586" y2="40.8586">
<stop offset="0" stop-color="#e9e741"/>
<stop offset="1" stop-color="#417109"/>
</linearGradient>
<linearGradient gradientTransform="matrix(0.976065 -0.320821 -0.00595011 0.988637 -11.4308 -0.478384)" gradientUnits="userSpaceOnUse" id="LinearGradient_17" x1="28.569" x2="30.0852" y1="41.0001" y2="41.0001">
<stop offset="0" stop-color="#e9e741"/>
<stop offset="1" stop-color="#417109"/>
</linearGradient>
<linearGradient gradientTransform="matrix(0.976065 -0.320821 -0.00595011 0.988637 -11.4308 -0.478384)" gradientUnits="userSpaceOnUse" id="LinearGradient_18" x1="28.8707" x2="31.0752" y1="40.8586" y2="40.8586">
<stop offset="0" stop-color="#e9e741"/>
<stop offset="1" stop-color="#417109"/>
</linearGradient>
<linearGradient gradientTransform="matrix(-0.329123 1.10872 -0.884531 -0.450229 74.6312 14.4848)" gradientUnits="userSpaceOnUse" id="LinearGradient_19" x1="28.569" x2="30.0852" y1="41.0001" y2="41.0001">
<stop offset="0" stop-color="#e9e741"/>
<stop offset="1" stop-color="#417109"/>
</linearGradient>
<linearGradient gradientTransform="matrix(-0.329123 1.10872 -0.884531 -0.450229 74.6312 14.4848)" gradientUnits="userSpaceOnUse" id="LinearGradient_20" x1="28.8707" x2="31.0752" y1="40.8586" y2="40.8586">
<stop offset="0" stop-color="#e9e741"/>
<stop offset="1" stop-color="#417109"/>
</linearGradient>
<linearGradient gradientTransform="matrix(0.990838 -0.220313 0.0869189 0.880728 -1.62242 2.76751)" gradientUnits="userSpaceOnUse" id="LinearGradient_21" x1="28.569" x2="30.0852" y1="41.0001" y2="41.0001">
<stop offset="0" stop-color="#e9e741"/>
<stop offset="1" stop-color="#417109"/>
</linearGradient>
<linearGradient gradientTransform="matrix(0.990838 -0.220313 0.0869189 0.880728 -1.62242 2.76751)" gradientUnits="userSpaceOnUse" id="LinearGradient_22" x1="28.8707" x2="31.0752" y1="40.8586" y2="40.8586">
<stop offset="0" stop-color="#e9e741"/>
<stop offset="1" stop-color="#417109"/>
</linearGradient>
<linearGradient gradientTransform="matrix(0.63552 0.782238 -0.889123 0.559122 42.7769 -9.02527)" gradientUnits="userSpaceOnUse" id="LinearGradient_23" x1="28.569" x2="30.0852" y1="41.0001" y2="41.0001">
<stop offset="0" stop-color="#88dd19"/>
<stop offset="1" stop-color="#22580a"/>
</linearGradient>
<linearGradient gradientTransform="matrix(0.63552 0.782238 -0.889123 0.559122 42.7769 -9.02527)" gradientUnits="userSpaceOnUse" id="LinearGradient_24" x1="28.8707" x2="31.0752" y1="40.8586" y2="40.8586">
<stop offset="0" stop-color="#88dd19"/>
<stop offset="1" stop-color="#22580a"/>
</linearGradient>
<linearGradient gradientTransform="matrix(1 0 0 0.994948 0 0.137795)" gradientUnits="userSpaceOnUse" id="LinearGradient_25" x1="4.05619" x2="4.59452" y1="58.9252" y2="58.9252">
<stop offset="0" stop-color="#88dd19"/>
<stop offset="1" stop-color="#22580a"/>
</linearGradient>
<clipPath id="TextBounds_2">
<rect height="8.78496" width="49.1755" x="0.162877" y="41.2875"/>
</clipPath>
</defs>
<g id="Layer-1" vectornator:layerName="Layer 1">
<g fill="#a20a0a" opacity="1" stroke="none">
<path clip-path="url(#TextBounds)" d="M5.75732 3.61249L5.75732 8.99549L4.49032 8.99549L4.49032 3.61249L5.75732 3.61249ZM4.40632 2.23349C4.40632 2.13549 4.42499 2.04333 4.46232 1.95699C4.49966 1.87066 4.55099 1.79483 4.61632 1.72949C4.68166 1.66416 4.75749 1.61283 4.84382 1.57549C4.93016 1.53816 5.02232 1.51949 5.12032 1.51949C5.21832 1.51949 5.31049 1.53816 5.39682 1.57549C5.48316 1.61283 5.55899 1.66416 5.62432 1.72949C5.68966 1.79483 5.74099 1.87066 5.77832 1.95699C5.81566 2.04333 5.83432 2.13549 5.83432 2.23349C5.83432 2.33149 5.81566 2.42366 5.77832 2.50999C5.74099 2.59633 5.68966 2.67216 5.62432 2.73749C5.55899 2.80283 5.48316 2.85416 5.39682 2.89149C5.31049 2.92883 5.21832 2.94749 5.12032 2.94749C5.02232 2.94749 4.93016 2.92883 4.84382 2.89149C4.75749 2.85416 4.68166 2.80283 4.61632 2.73749C4.55099 2.67216 4.49966 2.59633 4.46232 2.50999C4.42499 2.42366 4.40632 2.33149 4.40632 2.23349Z"/>
<path clip-path="url(#TextBounds)" d="M7.89232 3.61249L7.89232 5.63549C7.89232 6.07883 8.10699 6.30049 8.53632 6.30049C8.96566 6.30049 9.18032 6.07883 9.18032 5.63549L9.18032 3.61249L10.4473 3.61249L10.4473 5.88049C10.4473 6.36583 10.2875 6.72983 9.96782 6.97249C9.64816 7.21516 9.17099 7.33649 8.53632 7.33649C7.90166 7.33649 7.42449 7.21516 7.10482 6.97249C6.78516 6.72983 6.62532 6.36583 6.62532 5.88049L6.62532 3.61249L7.89232 3.61249Z"/>
<path clip-path="url(#TextBounds)" d="M12.7223 4.66949L12.7223 7.20349L11.4553 7.20349L11.4553 4.66949L11.0353 4.66949L11.0353 3.61249L11.4553 3.61249L11.4553 2.53449L12.7223 2.53449L12.7223 3.61249L13.4433 3.61249L13.4433 4.66949L12.7223 4.66949Z"/>
<path clip-path="url(#TextBounds)" d="M16.6143 4.88649C16.5723 4.70916 16.486 4.56683 16.3553 4.45949C16.2247 4.35216 16.066 4.29849 15.8793 4.29849C15.6833 4.29849 15.5235 4.34983 15.3998 4.45249C15.2762 4.55516 15.198 4.69983 15.1653 4.88649L16.6143 4.88649ZM15.1303 5.62149C15.1303 6.16749 15.387 6.44049 15.9003 6.44049C16.1757 6.44049 16.3833 6.32849 16.5233 6.10449L17.7483 6.10449C17.501 6.92583 16.8827 7.33649 15.8933 7.33649C15.59 7.33649 15.3123 7.29099 15.0603 7.19999C14.8083 7.10899 14.5925 6.97949 14.4128 6.81149C14.2332 6.64349 14.0943 6.44283 13.9963 6.20949C13.8983 5.97616 13.8493 5.71483 13.8493 5.42549C13.8493 5.12683 13.896 4.85733 13.9893 4.61699C14.0827 4.37666 14.2157 4.17249 14.3883 4.00449C14.561 3.83649 14.7698 3.70699 15.0148 3.61599C15.2598 3.52499 15.5363 3.47949 15.8443 3.47949C16.1477 3.47949 16.4207 3.52499 16.6633 3.61599C16.906 3.70699 17.1113 3.83883 17.2793 4.01149C17.4473 4.18416 17.5757 4.39533 17.6643 4.64499C17.753 4.89466 17.7973 5.17583 17.7973 5.48849L17.7973 5.62149L15.1303 5.62149Z"/>
<path clip-path="url(#TextBounds)" d="M20.8843 3.85049C21.211 3.65449 21.3743 3.43516 21.3743 3.19249C21.3743 3.06183 21.3312 2.94866 21.2448 2.85299C21.1585 2.75733 21.0477 2.70949 20.9123 2.70949C20.7863 2.70949 20.6813 2.75149 20.5973 2.83549C20.5133 2.91949 20.4713 3.02449 20.4713 3.15049C20.4713 3.31849 20.609 3.55183 20.8843 3.85049ZM20.3173 4.99849C19.986 5.20383 19.8203 5.40916 19.8203 5.61449C19.8203 5.68916 19.8367 5.75799 19.8693 5.82099C19.902 5.88399 19.9463 5.93766 20.0023 5.98199C20.0583 6.02633 20.1225 6.06133 20.1948 6.08699C20.2672 6.11266 20.3453 6.12549 20.4293 6.12549C20.6627 6.12549 20.903 6.04849 21.1503 5.89449L20.3173 4.99849ZM22.1513 5.18749C22.4313 4.92149 22.66 4.66949 22.8373 4.43149L23.6143 5.18049C23.535 5.28783 23.4452 5.39633 23.3448 5.50599C23.2445 5.61566 23.129 5.73116 22.9983 5.85249L22.8933 5.95049L24.0693 7.20349L22.3613 7.20349L21.8993 6.72049C21.2693 7.14049 20.665 7.35049 20.0863 7.35049C19.839 7.35049 19.6127 7.31316 19.4073 7.23849C19.202 7.16383 19.0247 7.05883 18.8753 6.92349C18.726 6.78816 18.6093 6.62833 18.5253 6.44399C18.4413 6.25966 18.3993 6.05783 18.3993 5.83849C18.3993 5.64249 18.4262 5.46866 18.4798 5.31699C18.5335 5.16533 18.6257 5.01949 18.7563 4.87949C18.8543 4.77216 18.9628 4.67999 19.0818 4.60299C19.2008 4.52599 19.3467 4.44783 19.5193 4.36849L19.6663 4.29849L19.5753 4.19349C19.3047 3.85283 19.1693 3.52849 19.1693 3.22049C19.1693 3.01516 19.2113 2.82383 19.2953 2.64649C19.3793 2.46916 19.4948 2.31633 19.6418 2.18799C19.7888 2.05966 19.9627 1.95933 20.1633 1.88699C20.364 1.81466 20.581 1.77849 20.8143 1.77849C21.0523 1.77849 21.2717 1.81466 21.4723 1.88699C21.673 1.95933 21.8468 2.06083 21.9938 2.19149C22.1408 2.32216 22.2552 2.47499 22.3368 2.64999C22.4185 2.82499 22.4593 3.01516 22.4593 3.22049C22.4593 3.36049 22.443 3.48766 22.4103 3.60199C22.3777 3.71633 22.3228 3.82366 22.2458 3.92399C22.1688 4.02433 22.0685 4.11999 21.9448 4.21099C21.8212 4.30199 21.6683 4.39416 21.4863 4.48749L22.1513 5.18749Z"/>
<path clip-path="url(#TextBounds)" d="M24.5033 3.61249L25.7703 3.61249L25.7703 4.05349C26.1157 3.72216 26.503 3.55649 26.9323 3.55649C27.4643 3.55649 27.8703 3.78049 28.1503 4.22849C28.435 3.77583 28.841 3.54949 29.3683 3.54949C29.5363 3.54949 29.695 3.57399 29.8443 3.62299C29.9937 3.67199 30.122 3.74899 30.2293 3.85399C30.3367 3.95899 30.4218 4.09549 30.4848 4.26349C30.5478 4.43149 30.5793 4.63449 30.5793 4.87249L30.5793 7.20349L29.3123 7.20349L29.3123 5.43249C29.3123 5.25049 29.2995 5.10116 29.2738 4.98449C29.2482 4.86783 29.2108 4.77683 29.1618 4.71149C29.1128 4.64616 29.0557 4.60183 28.9903 4.57849C28.925 4.55516 28.855 4.54349 28.7803 4.54349C28.3743 4.54349 28.1713 4.83983 28.1713 5.43249L28.1713 7.20349L26.9043 7.20349L26.9043 5.43249C26.9043 5.25049 26.8927 5.09999 26.8693 4.98099C26.846 4.86199 26.8122 4.76749 26.7678 4.69749C26.7235 4.62749 26.6663 4.57966 26.5963 4.55399C26.5263 4.52833 26.4447 4.51549 26.3513 4.51549C26.272 4.51549 26.1973 4.52716 26.1273 4.55049C26.0573 4.57383 25.9955 4.61933 25.9418 4.68699C25.8882 4.75466 25.8462 4.84799 25.8158 4.96699C25.7855 5.08599 25.7703 5.24116 25.7703 5.43249L25.7703 7.20349L24.5033 7.20349L24.5033 3.61249Z"/>
<path clip-path="url(#TextBounds)" d="M32.6443 5.39049C32.6443 5.51183 32.6665 5.62266 32.7108 5.72299C32.7552 5.82333 32.8135 5.91083 32.8858 5.98549C32.9582 6.06016 33.0445 6.11849 33.1448 6.16049C33.2452 6.20249 33.3513 6.22349 33.4633 6.22349C33.5753 6.22349 33.6815 6.20249 33.7818 6.16049C33.8822 6.11849 33.9685 6.06016 34.0408 5.98549C34.1132 5.91083 34.1715 5.82333 34.2158 5.72299C34.2602 5.62266 34.2823 5.51416 34.2823 5.39749C34.2823 5.28549 34.2602 5.17933 34.2158 5.07899C34.1715 4.97866 34.1132 4.89116 34.0408 4.81649C33.9685 4.74183 33.8822 4.68349 33.7818 4.64149C33.6815 4.59949 33.5753 4.57849 33.4633 4.57849C33.3513 4.57849 33.2452 4.59949 33.1448 4.64149C33.0445 4.68349 32.9582 4.74183 32.8858 4.81649C32.8135 4.89116 32.7552 4.97749 32.7108 5.07549C32.6665 5.17349 32.6443 5.27849 32.6443 5.39049ZM31.3073 5.37649C31.3073 5.11049 31.361 4.86199 31.4683 4.63099C31.5757 4.39999 31.725 4.19933 31.9163 4.02899C32.1077 3.85866 32.3352 3.72449 32.5988 3.62649C32.8625 3.52849 33.1507 3.47949 33.4633 3.47949C33.7713 3.47949 34.0572 3.52733 34.3208 3.62299C34.5845 3.71866 34.8132 3.85166 35.0068 4.02199C35.2005 4.19233 35.351 4.39533 35.4583 4.63099C35.5657 4.86666 35.6193 5.12683 35.6193 5.41149C35.6193 5.69616 35.5645 5.95633 35.4548 6.19199C35.3452 6.42766 35.1947 6.63066 35.0033 6.80099C34.812 6.97133 34.5822 7.10316 34.3138 7.19649C34.0455 7.28983 33.755 7.33649 33.4423 7.33649C33.1343 7.33649 32.8497 7.28983 32.5883 7.19649C32.327 7.10316 32.1018 6.97016 31.9128 6.79749C31.7238 6.62483 31.5757 6.41833 31.4683 6.17799C31.361 5.93766 31.3073 5.67049 31.3073 5.37649Z"/>
<path clip-path="url(#TextBounds)" d="M37.5443 5.39049C37.5443 5.51183 37.5665 5.62266 37.6108 5.72299C37.6552 5.82333 37.7135 5.91083 37.7858 5.98549C37.8582 6.06016 37.9445 6.11849 38.0448 6.16049C38.1452 6.20249 38.2513 6.22349 38.3633 6.22349C38.4753 6.22349 38.5815 6.20249 38.6818 6.16049C38.7822 6.11849 38.8685 6.06016 38.9408 5.98549C39.0132 5.91083 39.0715 5.82333 39.1158 5.72299C39.1602 5.62266 39.1823 5.51416 39.1823 5.39749C39.1823 5.28549 39.1602 5.17933 39.1158 5.07899C39.0715 4.97866 39.0132 4.89116 38.9408 4.81649C38.8685 4.74183 38.7822 4.68349 38.6818 4.64149C38.5815 4.59949 38.4753 4.57849 38.3633 4.57849C38.2513 4.57849 38.1452 4.59949 38.0448 4.64149C37.9445 4.68349 37.8582 4.74183 37.7858 4.81649C37.7135 4.89116 37.6552 4.97749 37.6108 5.07549C37.5665 5.17349 37.5443 5.27849 37.5443 5.39049ZM36.2073 5.37649C36.2073 5.11049 36.261 4.86199 36.3683 4.63099C36.4757 4.39999 36.625 4.19933 36.8163 4.02899C37.0077 3.85866 37.2352 3.72449 37.4988 3.62649C37.7625 3.52849 38.0507 3.47949 38.3633 3.47949C38.6713 3.47949 38.9572 3.52733 39.2208 3.62299C39.4845 3.71866 39.7132 3.85166 39.9068 4.02199C40.1005 4.19233 40.251 4.39533 40.3583 4.63099C40.4657 4.86666 40.5193 5.12683 40.5193 5.41149C40.5193 5.69616 40.4645 5.95633 40.3548 6.19199C40.2452 6.42766 40.0947 6.63066 39.9033 6.80099C39.712 6.97133 39.4822 7.10316 39.2138 7.19649C38.9455 7.28983 38.655 7.33649 38.3423 7.33649C38.0343 7.33649 37.7497 7.28983 37.4883 7.19649C37.227 7.10316 37.0018 6.97016 36.8128 6.79749C36.6238 6.62483 36.4757 6.41833 36.3683 6.17799C36.261 5.93766 36.2073 5.67049 36.2073 5.37649Z"/>
<path clip-path="url(#TextBounds)" d="M42.4233 5.39749C42.4233 5.51416 42.4443 5.62266 42.4863 5.72299C42.5283 5.82333 42.5855 5.91083 42.6578 5.98549C42.7302 6.06016 42.8165 6.11849 42.9168 6.16049C43.0172 6.20249 43.1257 6.22349 43.2423 6.22349C43.3543 6.22349 43.4605 6.20249 43.5608 6.16049C43.6612 6.11849 43.7475 6.06016 43.8198 5.98549C43.8922 5.91083 43.9505 5.82449 43.9948 5.72649C44.0392 5.62849 44.0613 5.52349 44.0613 5.41149C44.0613 5.29949 44.0392 5.19333 43.9948 5.09299C43.9505 4.99266 43.8922 4.90516 43.8198 4.83049C43.7475 4.75583 43.6612 4.69749 43.5608 4.65549C43.4605 4.61349 43.3543 4.59249 43.2423 4.59249C43.1303 4.59249 43.0242 4.61349 42.9238 4.65549C42.8235 4.69749 42.7372 4.75583 42.6648 4.83049C42.5925 4.90516 42.5342 4.99033 42.4898 5.08599C42.4455 5.18166 42.4233 5.28549 42.4233 5.39749ZM44.0193 1.39349L45.2933 1.39349L45.2933 7.20349L44.0193 7.20349L44.0193 6.80449C43.7487 7.14516 43.3823 7.31549 42.9203 7.31549C42.659 7.31549 42.4187 7.26649 42.1993 7.16849C41.98 7.07049 41.7887 6.93516 41.6253 6.76249C41.462 6.58983 41.3348 6.38683 41.2438 6.15349C41.1528 5.92016 41.1073 5.66816 41.1073 5.39749C41.1073 5.14083 41.1505 4.89699 41.2368 4.66599C41.3232 4.43499 41.4457 4.23316 41.6043 4.06049C41.763 3.88783 41.9532 3.75133 42.1748 3.65099C42.3965 3.55066 42.6403 3.50049 42.9063 3.50049C43.3543 3.50049 43.7253 3.65683 44.0193 3.96949L44.0193 1.39349Z"/>
</g>
</g>
<clipPath id="ArtboardFrame">
<rect height="50" width="50" x="0" y="0"/>
</clipPath>
<g clip-path="url(#ArtboardFrame)" id="Layer-2" vectornator:layerName="Layer 2">
<g opacity="1">
<g opacity="1">
<path d="M47.0938 11.8125C42.8341 17.8453 34.9439 17.0237 28.6562 19.1562C21.544 21.5685 16.2188 27.0557 12.4375 33.375C12.4368 33.3755 12.4817 33.4268 12.5312 33.5C12.5808 33.5733 12.6243 33.6255 12.625 33.625C16.4664 27.2446 21.8969 22.0097 29.2188 19.9688C35.6453 18.1774 43.6323 19.199 47.9688 13.0938C47.9723 13.0913 47.7743 12.7967 47.5312 12.4375C47.2882 12.0783 47.0973 11.8101 47.0938 11.8125Z" fill="#866752" stroke="none"/>
</g>
<g opacity="1">
<path d="M20.0938 17.0312C17.2772 17.37 14.7273 18.9308 11.9688 19.5312C11.1906 19.7006 10.3428 19.8686 9.53125 19.875C8.31687 19.8846 7.11898 19.6391 5.90625 19.5938C5.90588 19.594 5.94397 19.6196 5.96875 19.6562C5.99353 19.6929 5.99963 19.719 6 19.7188C7.21893 19.7671 8.43611 20.0253 9.65625 20.0312C10.4744 20.0353 11.3072 19.8682 12.0938 19.7188C15.0919 19.149 17.9995 17.5619 21.0938 17.5312C23.6537 17.5059 25.8314 18.7769 27.7812 20.3125C27.783 20.3113 27.6839 20.1795 27.5625 20C27.4411 19.8205 27.3455 19.655 27.3438 19.6562C25.2314 17.9956 22.8764 16.6966 20.0938 17.0312Z" fill="#866752" stroke="none"/>
</g>
<g opacity="1">
<path d="M33.5938 18.9375C33.9889 19.9526 34.2753 20.998 34.3125 22.0938C34.4563 26.3279 30.7316 29.1554 28.4375 32.25C27.6417 33.3234 27.0483 34.4532 26.625 35.7188C26.6246 35.719 26.6315 35.7446 26.6562 35.7812C26.681 35.8179 26.7184 35.844 26.7188 35.8438C27.5868 33.2715 29.3473 31.424 31.1875 29.5C33.0004 27.6044 34.8161 25.4908 34.75 22.7188C34.724 21.6307 34.4225 20.601 34.0312 19.5938C34.033 19.5925 33.934 19.4294 33.8125 19.25C33.691 19.0706 33.5955 18.9363 33.5938 18.9375Z" fill="#866752" stroke="none"/>
</g>
<g opacity="1">
<path d="M34.1878 31.1933C32.4142 31.4727 32.788 28.223 33.8058 26.2975" fill="url(#LinearGradient)" fill-rule="nonzero" opacity="1" stroke="none"/>
<path d="M33.9505 31.279C37.1183 31.8402 33.9022 26.31 33.7859 25.938" fill="url(#LinearGradient_2)" fill-rule="nonzero" opacity="1" stroke="none"/>
</g>
<g opacity="1">
<path d="M9.03399 15.7665C10.051 14.2337 11.9844 16.9186 12.589 19.1049" fill="url(#LinearGradient_3)" fill-rule="nonzero" opacity="1" stroke="none"/>
<path d="M9.13752 15.5256C6.60748 17.4786 12.5151 19.1677 12.8446 19.3561" fill="url(#LinearGradient_4)" fill-rule="nonzero" opacity="1" stroke="none"/>
</g>
<g opacity="1">
<path d="M14.5616 22.0798C12.958 21.4809 14.9858 19.4246 16.841 18.5609" fill="url(#LinearGradient_5)" fill-rule="nonzero" opacity="1" stroke="none"/>
<path d="M14.3214 22.0327C16.624 23.8275 16.9134 18.6124 17.015 18.3061" fill="url(#LinearGradient_6)" fill-rule="nonzero" opacity="1" stroke="none"/>
</g>
<g opacity="1">
<path d="M13.1531 25.3583C13.2235 23.5333 15.638 25.0298 16.9415 26.6923" fill="url(#LinearGradient_7)" fill-rule="nonzero" opacity="1" stroke="none"/>
<path d="M13.1257 25.0973C12.1926 27.9874 16.9166 26.7818 17.2184 26.7981" fill="url(#LinearGradient_8)" fill-rule="nonzero" opacity="1" stroke="none"/>
</g>
<g opacity="1">
<path d="M19.5654 13.2594C20.6399 11.8454 21.7361 14.602 21.8511 16.7736" fill="url(#LinearGradient_9)" fill-rule="nonzero" opacity="1" stroke="none"/>
<path d="M19.6892 13.033C17.3307 14.7416 21.7813 16.8291 22.0135 17.0371" fill="url(#LinearGradient_10)" fill-rule="nonzero" opacity="1" stroke="none"/>
</g>
<g opacity="1">
<path d="M8.79367 34.8592C7.61295 32.826 10.4232 32.595 12.5179 33.397" fill="url(#LinearGradient_11)" fill-rule="nonzero" opacity="1" stroke="none"/>
<path d="M8.59687 34.5972C9.85459 38.4478 12.5598 33.5132 12.7957 33.2991" fill="url(#LinearGradient_12)" fill-rule="nonzero" opacity="1" stroke="none"/>
</g>
<g opacity="1">
<path d="M24.1265 25.996C23.8889 28.3799 21.5455 26.6948 20.3578 24.6723" fill="url(#LinearGradient_13)" fill-rule="nonzero" opacity="1" stroke="none"/>
<path d="M24.1309 26.3329C25.3505 22.4681 20.3915 24.553 20.0831 24.5647" fill="url(#LinearGradient_14)" fill-rule="nonzero" opacity="1" stroke="none"/>
</g>
<g opacity="1">
<path d="M2.66303 22.3055C1.50294 21.0823 4.06649 19.8204 6.01526 19.6816" fill="url(#LinearGradient_15)" fill-rule="nonzero" opacity="1" stroke="none"/>
<path d="M2.47266 22.1649C3.77406 24.8546 6.05814 19.7613 6.26577 19.4951" fill="url(#LinearGradient_16)" fill-rule="nonzero" opacity="1" stroke="none"/>
</g>
<g opacity="1">
<path d="M17.6768 32.6518C16.0487 33.7281 15.9196 30.6527 16.5928 28.459" fill="url(#LinearGradient_17)" fill-rule="nonzero" opacity="1" stroke="none"/>
<path d="M17.4661 32.839C20.5308 31.8632 16.6854 28.4253 16.5208 28.1474" fill="url(#LinearGradient_18)" fill-rule="nonzero" opacity="1" stroke="none"/>
</g>
<g opacity="1">
<path d="M26.4523 28.3576C26.5151 26.2651 29.36 27.5198 30.9052 29.171" fill="url(#LinearGradient_19)" fill-rule="nonzero" opacity="1" stroke="none"/>
<path d="M26.4174 28.0653C25.3557 31.5324 30.877 29.2776 31.2307 29.2399" fill="url(#LinearGradient_20)" fill-rule="nonzero" opacity="1" stroke="none"/>
</g>
<g opacity="1">
<path d="M31.9484 34.2519C30.3467 35.1017 29.9219 32.352 30.4195 30.4422" fill="url(#LinearGradient_21)" fill-rule="nonzero" opacity="1" stroke="none"/>
<path d="M31.7456 34.4046C34.8597 33.7409 30.5131 30.4184 30.3148 30.1596" fill="url(#LinearGradient_22)" fill-rule="nonzero" opacity="1" stroke="none"/>
</g>
<g opacity="1">
<path d="M23.4209 38.7039C21.8753 37.7084 24.5886 35.8231 26.7965 35.2353" fill="url(#LinearGradient_23)" fill-rule="nonzero" opacity="1" stroke="none"/>
<path d="M23.1779 38.6024C25.145 41.0766 26.8597 35.3076 27.0505 34.986" fill="url(#LinearGradient_24)" fill-rule="nonzero" opacity="1" stroke="none"/>
</g>
</g>
<path d="M4.05619 58.7652C4.23563 58.7652 4.41508 58.7652 4.59452 58.7652" fill="url(#LinearGradient_25)" fill-rule="nonzero" opacity="1" stroke="none"/>
<g fill="#a20a0a" opacity="1" stroke="none">
<path clip-path="url(#TextBounds_2)" d="M6.03062 43.3915L6.03062 44.5395L6.89062 43.3915L7.61462 43.3915L7.61462 45.4435L6.89062 45.4435L6.89062 44.2995L6.02662 45.4435L5.30662 45.4435L5.30662 43.3915L6.03062 43.3915Z"/>
<path clip-path="url(#TextBounds_2)" d="M8.07462 43.3635C8.14129 43.3501 8.20729 43.3388 8.27262 43.3295C8.33796 43.3201 8.40796 43.3155 8.48262 43.3155C8.61329 43.3155 8.73462 43.3301 8.84662 43.3595C8.95862 43.3888 9.05529 43.4301 9.13662 43.4835C9.21796 43.5368 9.28129 43.5995 9.32662 43.6715C9.37196 43.7435 9.39462 43.8208 9.39462 43.9035C9.39462 43.9941 9.36729 44.0761 9.31262 44.1495C9.25796 44.2228 9.17062 44.2901 9.05062 44.3515C9.19462 44.3968 9.29929 44.4588 9.36462 44.5375C9.42996 44.6161 9.46262 44.7155 9.46262 44.8355C9.46262 44.9341 9.43929 45.0255 9.39262 45.1095C9.34596 45.1935 9.27929 45.2655 9.19262 45.3255C9.10596 45.3855 9.00262 45.4328 8.88262 45.4675C8.76262 45.5021 8.63062 45.5195 8.48662 45.5195C8.41729 45.5195 8.34662 45.5155 8.27462 45.5075C8.20262 45.4995 8.13596 45.4861 8.07462 45.4675L8.07462 44.8835C8.11196 44.8968 8.15529 44.9068 8.20462 44.9135C8.25396 44.9201 8.30129 44.9235 8.34662 44.9235C8.44262 44.9235 8.52462 44.9095 8.59262 44.8815C8.66062 44.8535 8.69462 44.8195 8.69462 44.7795C8.69462 44.7341 8.65596 44.6948 8.57862 44.6615C8.50129 44.6281 8.39996 44.6115 8.27462 44.6115L8.24262 44.6115L8.24262 44.1875C8.38662 44.1848 8.49129 44.1715 8.55662 44.1475C8.62196 44.1235 8.65462 44.0888 8.65462 44.0435C8.65462 44.0008 8.63196 43.9688 8.58662 43.9475C8.54129 43.9261 8.47996 43.9155 8.40262 43.9155C8.34662 43.9155 8.28929 43.9201 8.23062 43.9295C8.17196 43.9388 8.11996 43.9501 8.07462 43.9635L8.07462 43.3635Z"/>
<path clip-path="url(#TextBounds_2)" d="M11.4026 43.9955L10.8546 43.9955L10.8546 44.6115C10.8546 44.6648 10.8533 44.7075 10.8506 44.7395C10.848 44.7715 10.844 44.8048 10.8386 44.8395L11.4026 44.8395L11.4026 43.9955ZM9.93862 44.8395C10.0106 44.8395 10.06 44.8155 10.0866 44.7675C10.1133 44.7195 10.1266 44.6448 10.1266 44.5435L10.1266 43.3915L12.1266 43.3915L12.1266 44.8395L12.3706 44.8395L12.3706 45.8635L11.6466 45.8635L11.6466 45.4435L10.5626 45.4435L10.5626 45.8635L9.83862 45.8635L9.83862 44.8395L9.93862 44.8395Z"/>
<path clip-path="url(#TextBounds_2)" d="M14.2866 44.1195C14.2626 44.0181 14.2133 43.9368 14.1386 43.8755C14.064 43.8141 13.9733 43.7835 13.8666 43.7835C13.7546 43.7835 13.6633 43.8128 13.5926 43.8715C13.522 43.9301 13.4773 44.0128 13.4586 44.1195L14.2866 44.1195ZM13.4386 44.5395C13.4386 44.8515 13.5853 45.0075 13.8786 45.0075C14.036 45.0075 14.1546 44.9435 14.2346 44.8155L14.9346 44.8155C14.7933 45.2848 14.44 45.5195 13.8746 45.5195C13.7013 45.5195 13.5426 45.4935 13.3986 45.4415C13.2546 45.3895 13.1313 45.3155 13.0286 45.2195C12.926 45.1235 12.8466 45.0088 12.7906 44.8755C12.7346 44.7421 12.7066 44.5928 12.7066 44.4275C12.7066 44.2568 12.7333 44.1028 12.7866 43.9655C12.84 43.8281 12.916 43.7115 13.0146 43.6155C13.1133 43.5195 13.2326 43.4455 13.3726 43.3935C13.5126 43.3415 13.6706 43.3155 13.8466 43.3155C14.02 43.3155 14.176 43.3415 14.3146 43.3935C14.4533 43.4455 14.5706 43.5208 14.6666 43.6195C14.7626 43.7181 14.836 43.8388 14.8866 43.9815C14.9373 44.1241 14.9626 44.2848 14.9626 44.4635L14.9626 44.5395L13.4386 44.5395Z"/>
<path clip-path="url(#TextBounds_2)" d="M15.2786 44.8475C15.2866 44.8501 15.2986 44.8515 15.3146 44.8515C15.3493 44.8515 15.38 44.8488 15.4066 44.8435C15.4333 44.8381 15.4546 44.8268 15.4706 44.8095C15.4866 44.7921 15.4986 44.7661 15.5066 44.7315C15.5146 44.6968 15.5186 44.6515 15.5186 44.5955L15.5186 43.3915L17.5186 43.3915L17.5186 45.4435L16.7946 45.4435L16.7946 43.9955L16.2426 43.9955L16.2426 44.6755C16.2426 44.8221 16.2206 44.9488 16.1766 45.0555C16.1326 45.1621 16.072 45.2501 15.9946 45.3195C15.9173 45.3888 15.8233 45.4401 15.7126 45.4735C15.602 45.5068 15.4813 45.5235 15.3506 45.5235L15.2786 45.5235L15.2786 44.8475Z"/>
<path clip-path="url(#TextBounds_2)" d="M18.7386 43.3915L18.7386 44.5395L19.5986 43.3915L20.3226 43.3915L20.3226 45.4435L19.5986 45.4435L19.5986 44.2995L18.7346 45.4435L18.0146 45.4435L18.0146 43.3915L18.7386 43.3915Z"/>
<path clip-path="url(#TextBounds_2)" d="M21.9626 43.9195L21.7386 43.9195C21.6693 43.9195 21.6146 43.9388 21.5746 43.9775C21.5346 44.0161 21.5146 44.0688 21.5146 44.1355C21.5146 44.2048 21.5346 44.2588 21.5746 44.2975C21.6146 44.3361 21.6693 44.3555 21.7386 44.3555L21.9626 44.3555L21.9626 43.9195ZM21.2146 44.7475C21.0973 44.7101 21.0066 44.6368 20.9426 44.5275C20.8786 44.4181 20.8466 44.2835 20.8466 44.1235C20.8466 44.0221 20.8633 43.9268 20.8966 43.8375C20.93 43.7481 20.98 43.6708 21.0466 43.6055C21.1133 43.5401 21.196 43.4881 21.2946 43.4495C21.3933 43.4108 21.508 43.3915 21.6386 43.3915L22.6866 43.3915L22.6866 45.4435L21.9626 45.4435L21.9626 44.8035L21.8386 44.8035L21.4866 45.4435L20.7226 45.4435L21.2146 44.7475Z"/>
<path clip-path="url(#TextBounds_2)" d="M25.2666 43.3915L25.2666 44.5395L26.1266 43.3915L26.8506 43.3915L26.8506 45.4435L26.1266 45.4435L26.1266 44.2995L25.2626 45.4435L24.5426 45.4435L24.5426 43.3915L25.2666 43.3915Z"/>
<path clip-path="url(#TextBounds_2)" d="M27.3106 43.3635C27.3773 43.3501 27.4433 43.3388 27.5086 43.3295C27.574 43.3201 27.644 43.3155 27.7186 43.3155C27.8493 43.3155 27.9706 43.3301 28.0826 43.3595C28.1946 43.3888 28.2913 43.4301 28.3726 43.4835C28.454 43.5368 28.5173 43.5995 28.5626 43.6715C28.608 43.7435 28.6306 43.8208 28.6306 43.9035C28.6306 43.9941 28.6033 44.0761 28.5486 44.1495C28.494 44.2228 28.4066 44.2901 28.2866 44.3515C28.4306 44.3968 28.5353 44.4588 28.6006 44.5375C28.666 44.6161 28.6986 44.7155 28.6986 44.8355C28.6986 44.9341 28.6753 45.0255 28.6286 45.1095C28.582 45.1935 28.5153 45.2655 28.4286 45.3255C28.342 45.3855 28.2386 45.4328 28.1186 45.4675C27.9986 45.5021 27.8666 45.5195 27.7226 45.5195C27.6533 45.5195 27.5826 45.5155 27.5106 45.5075C27.4386 45.4995 27.372 45.4861 27.3106 45.4675L27.3106 44.8835C27.348 44.8968 27.3913 44.9068 27.4406 44.9135C27.49 44.9201 27.5373 44.9235 27.5826 44.9235C27.6786 44.9235 27.7606 44.9095 27.8286 44.8815C27.8966 44.8535 27.9306 44.8195 27.9306 44.7795C27.9306 44.7341 27.892 44.6948 27.8146 44.6615C27.7373 44.6281 27.636 44.6115 27.5106 44.6115L27.4786 44.6115L27.4786 44.1875C27.6226 44.1848 27.7273 44.1715 27.7926 44.1475C27.858 44.1235 27.8906 44.0888 27.8906 44.0435C27.8906 44.0008 27.868 43.9688 27.8226 43.9475C27.7773 43.9261 27.716 43.9155 27.6386 43.9155C27.5826 43.9155 27.5253 43.9201 27.4666 43.9295C27.408 43.9388 27.356 43.9501 27.3106 43.9635L27.3106 43.3635Z"/>
<path clip-path="url(#TextBounds_2)" d="M31.9986 43.9955L31.4506 43.9955L31.4506 44.6115C31.4506 44.6648 31.4493 44.7075 31.4466 44.7395C31.444 44.7715 31.44 44.8048 31.4346 44.8395L31.9986 44.8395L31.9986 43.9955ZM30.5346 44.8395C30.6066 44.8395 30.656 44.8155 30.6826 44.7675C30.7093 44.7195 30.7226 44.6448 30.7226 44.5435L30.7226 43.3915L32.7226 43.3915L32.7226 44.8395L32.9666 44.8395L32.9666 45.8635L32.2426 45.8635L32.2426 45.4435L31.1586 45.4435L31.1586 45.8635L30.4346 45.8635L30.4346 44.8395L30.5346 44.8395Z"/>
<path clip-path="url(#TextBounds_2)" d="M36.0906 43.3915L36.8666 43.3915L36.0106 44.3755L36.9706 45.4435L36.1506 45.4435L35.4346 44.6115L35.4346 45.4435L34.7106 45.4435L34.7106 44.6115L33.9866 45.4435L33.1666 45.4435L34.1306 44.3755L33.2746 43.3915L34.0506 43.3915L34.7106 44.2315L34.7106 43.3915L35.4346 43.3915L35.4346 44.2315L36.0906 43.3915Z"/>
<path clip-path="url(#TextBounds_2)" d="M37.9946 45.1635L37.0026 43.3915L37.8426 43.3915L38.3906 44.4435L38.9226 43.3915L39.7546 43.3915L38.1066 46.4675L37.2946 46.4675L37.9946 45.1635Z"/>
<path clip-path="url(#TextBounds_2)" d="M41.5186 43.9955L41.0386 43.9955L41.0386 45.4435L40.3146 45.4435L40.3146 43.9955L39.8346 43.9955L39.8346 43.3915L41.5186 43.3915L41.5186 43.9955Z"/>
<path clip-path="url(#TextBounds_2)" d="M42.5586 44.4115C42.5586 44.4781 42.5706 44.5401 42.5946 44.5975C42.6186 44.6548 42.6513 44.7048 42.6926 44.7475C42.734 44.7901 42.7833 44.8235 42.8406 44.8475C42.898 44.8715 42.96 44.8835 43.0266 44.8835C43.0906 44.8835 43.1513 44.8715 43.2086 44.8475C43.266 44.8235 43.3153 44.7901 43.3566 44.7475C43.398 44.7048 43.4313 44.6555 43.4566 44.5995C43.482 44.5435 43.4946 44.4835 43.4946 44.4195C43.4946 44.3555 43.482 44.2948 43.4566 44.2375C43.4313 44.1801 43.398 44.1301 43.3566 44.0875C43.3153 44.0448 43.266 44.0115 43.2086 43.9875C43.1513 43.9635 43.0906 43.9515 43.0266 43.9515C42.96 43.9515 42.898 43.9635 42.8406 43.9875C42.7833 44.0115 42.734 44.0448 42.6926 44.0875C42.6513 44.1301 42.6186 44.1788 42.5946 44.2335C42.5706 44.2881 42.5586 44.3475 42.5586 44.4115ZM43.4706 43.3915L44.1986 43.3915L44.1986 45.4435L43.4706 45.4435L43.4706 45.2155C43.316 45.4101 43.1066 45.5075 42.8426 45.5075C42.6933 45.5075 42.556 45.4801 42.4306 45.4255C42.3053 45.3708 42.196 45.2941 42.1026 45.1955C42.0093 45.0968 41.9366 44.9808 41.8846 44.8475C41.8326 44.7141 41.8066 44.5688 41.8066 44.4115C41.8066 44.2648 41.832 44.1255 41.8826 43.9935C41.9333 43.8615 42.004 43.7461 42.0946 43.6475C42.1853 43.5488 42.2933 43.4708 42.4186 43.4135C42.544 43.3561 42.6826 43.3275 42.8346 43.3275C43.0906 43.3275 43.3026 43.4168 43.4706 43.5955L43.4706 43.3915Z"/>
</g>
</g>
</svg>
