<?xml version="1.0" encoding="UTF-8" standalone="no"?>
<!DOCTYPE svg PUBLIC "-//W3C//DTD SVG 1.1//EN" "http://www.w3.org/Graphics/SVG/1.1/DTD/svg11.dtd">
<!-- Created with Vectornator (http://vectornator.io/) -->
<svg height="100%" stroke-miterlimit="10" style="fill-rule:nonzero;clip-rule:evenodd;stroke-linecap:round;stroke-linejoin:round;" version="1.1" viewBox="0 0 45 30" width="100%" xml:space="preserve" xmlns="http://www.w3.org/2000/svg" xmlns:vectornator="http://vectornator.io" xmlns:xlink="http://www.w3.org/1999/xlink">
<defs>
<linearGradient gradientTransform="matrix(1.00756 0 0 1 0.000886382 0)" gradientUnits="userSpaceOnUse" id="LinearGradient" x1="23.5264" x2="-5.68762" y1="14.9944" y2="14.9944">
<stop offset="0.0475207" stop-color="#f1e8e8"/>
<stop offset="0.694215" stop-color="#3b3a3a"/>
<stop offset="1" stop-color="#f5f1f1"/>
</linearGradient>
<clipPath id="TextBounds">
<rect height="23.2297" width="39.3309" x="2.90402" y="2.5193"/>
</clipPath>
<clipPath id="TextBounds_2">
<rect height="27.738" width="27.7387" x="23.3378" y="7.08055"/>
</clipPath>
</defs>
<clipPath id="ArtboardFrame">
<rect height="30" width="45" x="0" y="0"/>
</clipPath>
<g clip-path="url(#ArtboardFrame)" id="Layer-3" vectornator:layerName="Layer 3">
<path d="M-0.117281-0.489807L45.2299-0.489807L45.2299 30.22L-0.117281 30.22L-0.117281-0.489807Z" fill="url(#LinearGradient)" fill-rule="nonzero" opacity="1" stroke="none"/>
</g>
<g id="Layer-1" vectornator:layerName="Layer 1">
<g fill="#000000" opacity="1" stroke="none">
<path clip-path="url(#TextBounds)" d="M6.60402 9.6153L6.94802 9.6153C7.34268 9.6153 7.62535 9.56463 7.79602 9.4633C7.96668 9.36196 8.05202 9.1993 8.05202 8.9753C8.05202 8.7513 7.96668 8.58863 7.79602 8.4873C7.62535 8.38596 7.34268 8.3353 6.94802 8.3353L6.60402 8.3353L6.60402 9.6153ZM6.60402 7.1673L6.89202 7.1673C7.38268 7.1673 7.62802 6.97263 7.62802 6.5833C7.62802 6.19396 7.38268 5.9993 6.89202 5.9993L6.60402 5.9993L6.60402 7.1673ZM5.03602 4.7993L7.37202 4.7993C7.92668 4.7993 8.34802 4.93263 8.63602 5.1993C8.92402 5.46596 9.06802 5.84996 9.06802 6.3513C9.06802 6.6553 9.01335 6.9073 8.90402 7.1073C8.79468 7.3073 8.62802 7.47663 8.40402 7.6153C8.62802 7.65796 8.81868 7.7233 8.97602 7.8113C9.13335 7.8993 9.26135 8.0073 9.36002 8.1353C9.45868 8.2633 9.52935 8.4073 9.57202 8.5673C9.61468 8.7273 9.63602 8.89796 9.63602 9.0793C9.63602 9.36196 9.58668 9.61263 9.48802 9.8313C9.38935 10.05 9.25068 10.234 9.07202 10.3833C8.89335 10.5326 8.67602 10.6446 8.42002 10.7193C8.16402 10.794 7.87602 10.8313 7.55602 10.8313L5.03602 10.8313L5.03602 4.7993Z"/>
<path clip-path="url(#TextBounds)" d="M12.14 4.7993L12.14 9.5033L14.02 9.5033L14.02 10.8313L10.572 10.8313L10.572 4.7993L12.14 4.7993Z"/>
<path clip-path="url(#TextBounds)" d="M18.356 8.5913L17.652 6.5833L16.948 8.5913L18.356 8.5913ZM18.772 9.7833L16.532 9.7833L16.172 10.8313L14.5 10.8313L16.796 4.7993L18.508 4.7993L20.804 10.8313L19.132 10.8313L18.772 9.7833Z"/>
<path clip-path="url(#TextBounds)" d="M25.612 6.8153C25.2493 6.37263 24.8013 6.1513 24.268 6.1513C24.0333 6.1513 23.816 6.19396 23.616 6.2793C23.416 6.36463 23.244 6.48063 23.1 6.6273C22.956 6.77396 22.8427 6.94863 22.76 7.1513C22.6773 7.35396 22.636 7.57263 22.636 7.8073C22.636 8.0473 22.6773 8.26863 22.76 8.4713C22.8427 8.67396 22.9573 8.84996 23.104 8.9993C23.2507 9.14863 23.4227 9.26596 23.62 9.3513C23.8173 9.43663 24.0307 9.4793 24.26 9.4793C24.7613 9.4793 25.212 9.26596 25.612 8.8393L25.612 10.6953L25.452 10.7513C25.212 10.8366 24.988 10.8993 24.78 10.9393C24.572 10.9793 24.3667 10.9993 24.164 10.9993C23.748 10.9993 23.3493 10.9206 22.968 10.7633C22.5867 10.606 22.2507 10.3846 21.96 10.0993C21.6693 9.81396 21.436 9.4753 21.26 9.0833C21.084 8.6913 20.996 8.2633 20.996 7.7993C20.996 7.3353 21.0827 6.90996 21.256 6.5233C21.4293 6.13663 21.6613 5.8033 21.952 5.5233C22.2427 5.2433 22.58 5.02463 22.964 4.8673C23.348 4.70996 23.7507 4.6313 24.172 4.6313C24.412 4.6313 24.648 4.65663 24.88 4.7073C25.112 4.75796 25.356 4.83663 25.612 4.9433L25.612 6.8153Z"/>
<path clip-path="url(#TextBounds)" d="M28.428 7.2873L30.34 4.7993L32.276 4.7993L29.884 7.6553L32.5 10.8313L30.468 10.8313L28.428 8.2153L28.428 10.8313L26.86 10.8313L26.86 4.7993L28.428 4.7993L28.428 7.2873Z"/>
<path clip-path="url(#TextBounds)" d="M8.49202 16.7593L6.60402 16.7593L6.60402 17.7673L8.32402 17.7673L8.32402 19.0953L6.60402 19.0953L6.60402 21.4633L5.03602 21.4633L5.03602 15.4313L8.49202 15.4313L8.49202 16.7593Z"/>
<path clip-path="url(#TextBounds)" d="M10.996 18.1273L11.292 18.1273C11.6013 18.1273 11.8387 18.0633 12.004 17.9353C12.1693 17.8073 12.252 17.6233 12.252 17.3833C12.252 17.1433 12.1693 16.9593 12.004 16.8313C11.8387 16.7033 11.6013 16.6393 11.292 16.6393L10.996 16.6393L10.996 18.1273ZM14.444 21.4633L12.492 21.4633L10.996 19.1433L10.996 21.4633L9.42802 21.4633L9.42802 15.4313L11.868 15.4313C12.204 15.4313 12.4973 15.4806 12.748 15.5793C12.9987 15.678 13.2053 15.8126 13.368 15.9833C13.5307 16.154 13.6533 16.3513 13.736 16.5753C13.8187 16.7993 13.86 17.0393 13.86 17.2953C13.86 17.754 13.7493 18.126 13.528 18.4113C13.3067 18.6966 12.98 18.89 12.548 18.9913L14.444 21.4633Z"/>
<path clip-path="url(#TextBounds)" d="M16.668 15.4313L16.668 21.4633L15.1 21.4633L15.1 15.4313L16.668 15.4313Z"/>
<path clip-path="url(#TextBounds)" d="M19.5 20.1353L19.86 20.1353C20.132 20.1353 20.3747 20.0926 20.588 20.0073C20.8013 19.922 20.9813 19.8046 21.128 19.6553C21.2747 19.506 21.3867 19.3286 21.464 19.1233C21.5413 18.918 21.58 18.6926 21.58 18.4473C21.58 18.2073 21.54 17.9833 21.46 17.7753C21.38 17.5673 21.2667 17.3886 21.12 17.2393C20.9733 17.09 20.7933 16.9726 20.58 16.8873C20.3667 16.802 20.1267 16.7593 19.86 16.7593L19.5 16.7593L19.5 20.1353ZM17.932 15.4313L20.252 15.4313C20.6627 15.4313 21.048 15.514 21.408 15.6793C21.768 15.8446 22.0827 16.0646 22.352 16.3393C22.6213 16.614 22.8333 16.934 22.988 17.2993C23.1427 17.6646 23.22 18.0473 23.22 18.4473C23.22 18.842 23.144 19.222 22.992 19.5873C22.84 19.9526 22.6293 20.274 22.36 20.5513C22.0907 20.8286 21.776 21.05 21.416 21.2153C21.056 21.3806 20.668 21.4633 20.252 21.4633L17.932 21.4633L17.932 15.4313Z"/>
<path clip-path="url(#TextBounds)" d="M27.244 19.2233L26.54 17.2153L25.836 19.2233L27.244 19.2233ZM27.66 20.4153L25.42 20.4153L25.06 21.4633L23.388 21.4633L25.684 15.4313L27.396 15.4313L29.692 21.4633L28.02 21.4633L27.66 20.4153Z"/>
<path clip-path="url(#TextBounds)" d="M31.268 18.5673L29.068 15.4313L30.94 15.4313L32.06 17.0793L33.172 15.4313L35.044 15.4313L32.836 18.5673L32.836 21.4633L31.268 21.4633L31.268 18.5673Z"/>
</g>
</g>
<g clip-path="url(#ArtboardFrame)" id="Layer-2" vectornator:layerName="Layer 2">
<path d="M5.53112 0.289734L40.159 0.289734C42.8757 0.289734 45.0781 2.42594 45.0781 5.06107L45.0781 24.7026C45.0781 27.3377 42.8757 29.4739 40.159 29.4739L5.53112 29.4739C2.81436 29.4739 0.611992 27.3377 0.611992 24.7026L0.611992 5.06107C0.611992 2.42594 2.81436 0.289734 5.53112 0.289734Z" fill="none" opacity="1" stroke="#000000" stroke-linecap="butt" stroke-linejoin="round" stroke-width="1"/>
<g fill="#db0707" opacity="1" stroke="none">
<path clip-path="url(#TextBounds_2)" d="M33.0604 25.8813C33.312 26.1329 33.3594 26.4732 33.2026 26.9022C33.083 27.2445 32.8809 27.558 32.5963 27.8426C32.3364 28.1025 31.9734 28.3499 31.5073 28.585C30.9257 28.8696 30.5359 28.9129 30.3379 28.7149C30.2636 28.6406 30.2265 28.5499 30.2265 28.4426C30.2265 28.3354 30.2637 28.2447 30.3379 28.1704C30.4493 28.059 30.5978 28.0013 30.7834 27.9972C31.0804 27.9725 31.2413 27.9601 31.266 27.9601C31.4929 27.8982 31.794 27.6796 32.1694 27.3043C32.5035 26.9702 32.5942 26.7268 32.4416 26.5742C32.3138 26.4463 31.9797 26.4257 31.4393 26.5123C31.0805 26.5907 30.7216 26.669 30.3627 26.7474C29.8925 26.8381 29.5089 26.8628 29.2119 26.8215C28.8201 26.7679 28.4798 26.5967 28.1911 26.308C27.8281 25.945 27.6157 25.5098 27.5538 25.0024C27.4796 24.4497 27.6199 23.996 27.9746 23.6413C28.2799 23.336 28.6212 23.1618 28.9986 23.1185C29.3761 23.0752 29.7442 23.1753 30.103 23.4186C30.2309 23.5218 30.4268 23.6682 30.6908 23.858C30.7733 23.9075 30.831 23.9487 30.864 23.9817C31.0125 24.1302 31.1136 24.2808 31.1672 24.4334C31.2455 24.6355 31.2187 24.8026 31.0867 24.9345C31.0125 25.0088 30.9073 25.0459 30.7712 25.0459C30.6351 25.0459 30.5299 25.0088 30.4556 24.9345C30.402 24.8809 30.335 24.7891 30.2546 24.6592C30.1741 24.5292 30.1071 24.4375 30.0535 24.3838C29.4967 23.827 29.0326 23.7341 28.6614 24.1053C28.4551 24.3116 28.3695 24.5725 28.4046 24.888C28.4396 25.2036 28.5623 25.4665 28.7727 25.6769C29.0697 25.9739 29.5357 26.0853 30.171 26.0111C30.7154 25.9039 31.262 25.7946 31.8106 25.6832C32.4128 25.5843 32.8294 25.6503 33.0604 25.8813Z"/>
<path clip-path="url(#TextBounds_2)" d="M36.2718 21.6927C36.4697 21.8907 36.4821 22.0805 36.3089 22.262C36.4243 22.3362 36.5976 22.4187 36.8286 22.5095C36.9152 22.6043 36.9523 22.7157 36.9399 22.8436C36.9275 22.9715 36.8739 23.0828 36.779 23.1777C36.7048 23.2519 36.5955 23.3159 36.4511 23.3695C36.2902 23.3158 36.1356 23.2148 35.9871 23.0663C35.95 23.0292 35.8984 22.9735 35.8324 22.8992C35.7664 22.825 35.7169 22.7713 35.6839 22.7383C35.7128 22.7672 35.6592 22.8497 35.523 22.9858C35.292 23.2168 35.028 23.5014 34.731 23.8396C34.302 24.3181 34.0906 24.5996 34.0968 24.6841C34.103 24.7687 34.2979 25.0152 34.6815 25.4235C34.7062 25.5555 34.6773 25.6628 34.5948 25.7453C34.5082 25.8319 34.3834 25.8845 34.2205 25.903C34.0576 25.9216 33.9348 25.8896 33.8524 25.8071C33.8235 25.7782 33.7451 25.6256 33.6173 25.3492C33.4069 24.9739 33.1017 24.4005 32.7017 23.6291C31.7407 21.5626 31.4438 20.3457 31.8109 19.9787C32.1698 19.6198 32.8462 19.7436 33.8403 20.35C34.2857 20.6222 34.9168 21.0925 35.7335 21.7608C35.8655 21.6783 35.9542 21.6308 35.9995 21.6185C36.1026 21.5896 36.1934 21.6144 36.2718 21.6927ZM35.1704 22.3238C33.5494 21.0656 32.6668 20.5087 32.5224 20.6531C32.4069 20.7686 32.543 21.3089 32.9306 22.2742C33.2111 22.9671 33.4709 23.5529 33.7101 24.0314C33.8133 23.8705 33.9741 23.6395 34.1928 23.3384C34.399 23.0744 34.7249 22.7362 35.1704 22.3238Z"/>
<path clip-path="url(#TextBounds_2)" d="M40.2317 19.6017C39.947 20.208 39.5572 20.7586 39.0622 21.2536C38.6745 21.6413 38.2661 21.7774 37.8371 21.6619C37.5071 21.5711 37.1339 21.3174 36.7173 20.9008C36.4739 20.6574 36.1326 20.2769 35.6934 19.7592C35.2541 19.2415 34.9128 18.861 34.6694 18.6176C34.6241 18.5722 34.5478 18.5042 34.4405 18.4134C34.3333 18.3227 34.2549 18.2526 34.2054 18.2031C34.1559 18.1536 34.1044 18.0937 34.0508 18.0236C34.0343 17.8421 34.0858 17.6916 34.2055 17.572C34.321 17.4565 34.4839 17.442 34.6942 17.5287C34.8592 17.5947 35.0077 17.6937 35.1397 17.8257C35.4202 18.1062 35.8099 18.5496 36.309 19.156C36.8081 19.7624 37.1958 20.2037 37.4721 20.4801C37.9588 20.9669 38.3404 21.0721 38.6167 20.7957C38.7405 20.672 38.8756 20.4523 39.022 20.1368C39.1685 19.8213 39.3036 19.6016 39.4273 19.4779C39.5428 19.3624 39.6831 19.3253 39.8481 19.3665C39.9801 19.3995 40.1079 19.4779 40.2317 19.6017Z"/>
<path clip-path="url(#TextBounds_2)" d="M43.2326 15.9947C43.3028 16.0648 43.3502 16.1411 43.3749 16.2236C43.4079 16.3309 43.3935 16.4154 43.3316 16.4773C43.3151 16.4938 43.2883 16.5144 43.2512 16.5392C43.214 16.5639 43.1872 16.5845 43.1707 16.601C42.9934 16.7784 42.7902 17.0888 42.5612 17.5322C42.3323 17.9756 42.1291 18.286 41.9518 18.4633C41.2876 19.1274 40.4524 18.9562 39.446 17.9497C38.6541 17.1577 38.0478 16.51 37.627 16.0068C37.5693 15.9408 37.5384 15.9057 37.5342 15.9016C37.5054 15.8727 37.459 15.8346 37.395 15.7871C37.3311 15.7397 37.2868 15.7036 37.262 15.6788C37.0723 15.4891 37.0641 15.2746 37.2373 15.0354C37.4972 14.66 37.755 14.2826 38.0108 13.9032C38.349 13.4082 38.6213 13.0576 38.8275 12.8514C38.9472 12.7318 39.073 12.6472 39.205 12.5977C39.3865 12.5317 39.5288 12.5503 39.6319 12.6534C39.7845 12.8061 39.7597 12.9834 39.5576 13.1855C39.5328 13.2103 39.4916 13.2453 39.4338 13.2907C39.3761 13.3361 39.3348 13.3711 39.3101 13.3959C38.976 13.73 38.5944 14.26 38.1654 14.9859C38.1365 15.023 38.1118 15.0602 38.0911 15.0973C38.0705 15.1344 38.0808 15.186 38.1221 15.252C38.2747 15.4953 38.6397 15.9058 39.2171 16.4833C39.3037 16.5699 39.3862 16.574 39.4646 16.4957C39.5719 16.3884 39.6997 16.2069 39.8483 15.9512C39.9968 15.6955 40.1246 15.514 40.2319 15.4068C40.3515 15.2871 40.5268 15.1861 40.7578 15.1036C40.931 15.1944 41.0321 15.2542 41.061 15.2831C41.1641 15.3862 41.1888 15.4728 41.1352 15.5429C41.0816 15.613 41.0238 15.6873 40.962 15.7657C40.9083 15.778 40.8526 15.8131 40.7949 15.8708C40.6505 16.0152 40.4958 16.207 40.3308 16.4462C40.1988 16.6524 40.0627 16.8587 39.9224 17.0649C39.9018 17.0938 39.8843 17.1196 39.8698 17.1422C39.8554 17.1649 39.8667 17.2031 39.9039 17.2567C39.9699 17.3392 40.0255 17.4031 40.0709 17.4485C40.3885 17.7662 40.5844 17.9497 40.6587 17.9992C40.9391 18.1972 41.1722 18.2034 41.3578 18.0178C41.5146 17.8611 41.695 17.5837 41.8992 17.1857C42.1034 16.7876 42.2942 16.4999 42.4716 16.3226C42.7521 16.0421 43.0058 15.9328 43.2326 15.9947Z"/>
</g>
</g>
</svg>
